<mxfile host="Electron" agent="Mozilla/5.0 (X11; Linux x86_64) AppleWebKit/537.36 (KHTML, like Gecko) draw.io/28.1.2 Chrome/138.0.7204.243 Electron/37.4.0 Safari/537.36" version="28.1.2">
  <diagram name="PÃ¡gina-1" id="TdXgL12jWPz7DJJsP1rq">
    <mxGraphModel dx="2893" dy="1155" grid="1" gridSize="10" guides="1" tooltips="1" connect="1" arrows="1" fold="1" page="1" pageScale="1" pageWidth="827" pageHeight="1169" math="0" shadow="0">
      <root>
        <mxCell id="0" />
        <mxCell id="Al5XGX1l0qWC6tel_waJ-2" value="account" style="locked=1;" parent="0" />
        <mxCell id="Al5XGX1l0qWC6tel_waJ-3" value="AWS Account" style="points=[[0,0],[0.25,0],[0.5,0],[0.75,0],[1,0],[1,0.25],[1,0.5],[1,0.75],[1,1],[0.75,1],[0.5,1],[0.25,1],[0,1],[0,0.75],[0,0.5],[0,0.25]];outlineConnect=0;gradientColor=none;html=1;whiteSpace=wrap;fontSize=12;fontStyle=0;container=1;pointerEvents=0;collapsible=0;recursiveResize=0;shape=mxgraph.aws4.group;grIcon=mxgraph.aws4.group_account;strokeColor=#CD2264;fillColor=none;verticalAlign=top;align=left;spacingLeft=30;fontColor=#CD2264;dashed=0;" vertex="1" parent="Al5XGX1l0qWC6tel_waJ-2">
          <mxGeometry x="-80" y="130" width="960" height="670" as="geometry" />
        </mxCell>
        <mxCell id="1" value="vpc" style="locked=1;" parent="0" />
        <mxCell id="Al5XGX1l0qWC6tel_waJ-1" value="VPC" style="points=[[0,0],[0.25,0],[0.5,0],[0.75,0],[1,0],[1,0.25],[1,0.5],[1,0.75],[1,1],[0.75,1],[0.5,1],[0.25,1],[0,1],[0,0.75],[0,0.5],[0,0.25]];outlineConnect=0;gradientColor=none;html=1;whiteSpace=wrap;fontSize=12;fontStyle=0;container=1;pointerEvents=0;collapsible=0;recursiveResize=0;shape=mxgraph.aws4.group;grIcon=mxgraph.aws4.group_vpc2;strokeColor=#8C4FFF;fillColor=none;verticalAlign=top;align=left;spacingLeft=30;fontColor=#AAB7B8;dashed=0;" vertex="1" parent="1">
          <mxGeometry x="120" y="160" width="520" height="480" as="geometry" />
        </mxCell>
        <mxCell id="Al5XGX1l0qWC6tel_waJ-4" value="subnets" style="locked=1;" parent="0" />
        <mxCell id="Al5XGX1l0qWC6tel_waJ-5" value="Private subnet" style="points=[[0,0],[0.25,0],[0.5,0],[0.75,0],[1,0],[1,0.25],[1,0.5],[1,0.75],[1,1],[0.75,1],[0.5,1],[0.25,1],[0,1],[0,0.75],[0,0.5],[0,0.25]];outlineConnect=0;gradientColor=none;html=1;whiteSpace=wrap;fontSize=12;fontStyle=0;container=1;pointerEvents=0;collapsible=0;recursiveResize=0;shape=mxgraph.aws4.group;grIcon=mxgraph.aws4.group_security_group;grStroke=0;strokeColor=#00A4A6;fillColor=#E6F6F7;verticalAlign=top;align=left;spacingLeft=30;fontColor=#147EBA;dashed=0;" vertex="1" parent="Al5XGX1l0qWC6tel_waJ-4">
          <mxGeometry x="320" y="240" width="300" height="130" as="geometry" />
        </mxCell>
        <mxCell id="Al5XGX1l0qWC6tel_waJ-6" value="Private subnet" style="points=[[0,0],[0.25,0],[0.5,0],[0.75,0],[1,0],[1,0.25],[1,0.5],[1,0.75],[1,1],[0.75,1],[0.5,1],[0.25,1],[0,1],[0,0.75],[0,0.5],[0,0.25]];outlineConnect=0;gradientColor=none;html=1;whiteSpace=wrap;fontSize=12;fontStyle=0;container=1;pointerEvents=0;collapsible=0;recursiveResize=0;shape=mxgraph.aws4.group;grIcon=mxgraph.aws4.group_security_group;grStroke=0;strokeColor=#00A4A6;fillColor=#E6F6F7;verticalAlign=top;align=left;spacingLeft=30;fontColor=#147EBA;dashed=0;" vertex="1" parent="Al5XGX1l0qWC6tel_waJ-4">
          <mxGeometry x="320" y="400" width="300" height="130" as="geometry" />
        </mxCell>
        <mxCell id="Al5XGX1l0qWC6tel_waJ-7" value="ecs" style="locked=1;" parent="0" />
        <mxCell id="Al5XGX1l0qWC6tel_waJ-28" style="edgeStyle=orthogonalEdgeStyle;rounded=0;orthogonalLoop=1;jettySize=auto;html=1;" edge="1" parent="Al5XGX1l0qWC6tel_waJ-7" source="Al5XGX1l0qWC6tel_waJ-17" target="Al5XGX1l0qWC6tel_waJ-25">
          <mxGeometry relative="1" as="geometry">
            <Array as="points">
              <mxPoint x="540" y="546" />
            </Array>
          </mxGeometry>
        </mxCell>
        <mxCell id="Al5XGX1l0qWC6tel_waJ-35" value="extraction" style="edgeLabel;html=1;align=center;verticalAlign=middle;resizable=0;points=[];" vertex="1" connectable="0" parent="Al5XGX1l0qWC6tel_waJ-28">
          <mxGeometry x="-0.1329" y="-2" relative="1" as="geometry">
            <mxPoint as="offset" />
          </mxGeometry>
        </mxCell>
        <mxCell id="Al5XGX1l0qWC6tel_waJ-29" style="edgeStyle=orthogonalEdgeStyle;rounded=0;orthogonalLoop=1;jettySize=auto;html=1;" edge="1" parent="Al5XGX1l0qWC6tel_waJ-7" source="Al5XGX1l0qWC6tel_waJ-17" target="Al5XGX1l0qWC6tel_waJ-26">
          <mxGeometry relative="1" as="geometry">
            <Array as="points">
              <mxPoint x="790" y="390" />
            </Array>
          </mxGeometry>
        </mxCell>
        <mxCell id="Al5XGX1l0qWC6tel_waJ-36" value="upload" style="edgeLabel;html=1;align=center;verticalAlign=middle;resizable=0;points=[];" vertex="1" connectable="0" parent="Al5XGX1l0qWC6tel_waJ-29">
          <mxGeometry x="-0.0815" y="-1" relative="1" as="geometry">
            <mxPoint as="offset" />
          </mxGeometry>
        </mxCell>
        <mxCell id="Al5XGX1l0qWC6tel_waJ-33" style="edgeStyle=orthogonalEdgeStyle;rounded=0;orthogonalLoop=1;jettySize=auto;html=1;" edge="1" parent="Al5XGX1l0qWC6tel_waJ-7" source="Al5XGX1l0qWC6tel_waJ-17" target="Al5XGX1l0qWC6tel_waJ-32">
          <mxGeometry relative="1" as="geometry">
            <Array as="points">
              <mxPoint x="560" y="580" />
              <mxPoint x="439" y="580" />
            </Array>
          </mxGeometry>
        </mxCell>
        <mxCell id="Al5XGX1l0qWC6tel_waJ-34" value="pull" style="edgeLabel;html=1;align=center;verticalAlign=middle;resizable=0;points=[];" vertex="1" connectable="0" parent="Al5XGX1l0qWC6tel_waJ-33">
          <mxGeometry x="0.0145" relative="1" as="geometry">
            <mxPoint as="offset" />
          </mxGeometry>
        </mxCell>
        <mxCell id="Al5XGX1l0qWC6tel_waJ-17" value="" style="rounded=1;arcSize=10;strokeColor=#F59D56;fillColor=none;gradientColor=none;strokeWidth=2;" vertex="1" parent="Al5XGX1l0qWC6tel_waJ-7">
          <mxGeometry x="470" y="270" width="140" height="240" as="geometry" />
        </mxCell>
        <mxCell id="Al5XGX1l0qWC6tel_waJ-13" style="edgeStyle=orthogonalEdgeStyle;rounded=0;orthogonalLoop=1;jettySize=auto;html=1;" edge="1" parent="Al5XGX1l0qWC6tel_waJ-7" source="Al5XGX1l0qWC6tel_waJ-8" target="Al5XGX1l0qWC6tel_waJ-9">
          <mxGeometry relative="1" as="geometry">
            <Array as="points">
              <mxPoint x="490" y="389" />
              <mxPoint x="490" y="305" />
            </Array>
          </mxGeometry>
        </mxCell>
        <mxCell id="Al5XGX1l0qWC6tel_waJ-14" style="edgeStyle=orthogonalEdgeStyle;rounded=0;orthogonalLoop=1;jettySize=auto;html=1;" edge="1" parent="Al5XGX1l0qWC6tel_waJ-7" source="Al5XGX1l0qWC6tel_waJ-8" target="Al5XGX1l0qWC6tel_waJ-11">
          <mxGeometry relative="1" as="geometry">
            <Array as="points">
              <mxPoint x="490" y="389" />
              <mxPoint x="490" y="413" />
            </Array>
          </mxGeometry>
        </mxCell>
        <mxCell id="Al5XGX1l0qWC6tel_waJ-15" style="edgeStyle=orthogonalEdgeStyle;rounded=0;orthogonalLoop=1;jettySize=auto;html=1;" edge="1" parent="Al5XGX1l0qWC6tel_waJ-7" source="Al5XGX1l0qWC6tel_waJ-8" target="Al5XGX1l0qWC6tel_waJ-12">
          <mxGeometry relative="1" as="geometry">
            <Array as="points">
              <mxPoint x="490" y="389" />
              <mxPoint x="490" y="465" />
            </Array>
          </mxGeometry>
        </mxCell>
        <mxCell id="Al5XGX1l0qWC6tel_waJ-16" style="edgeStyle=orthogonalEdgeStyle;rounded=0;orthogonalLoop=1;jettySize=auto;html=1;" edge="1" parent="Al5XGX1l0qWC6tel_waJ-7" source="Al5XGX1l0qWC6tel_waJ-8" target="Al5XGX1l0qWC6tel_waJ-10">
          <mxGeometry relative="1" as="geometry">
            <Array as="points">
              <mxPoint x="490" y="389" />
              <mxPoint x="490" y="365" />
            </Array>
          </mxGeometry>
        </mxCell>
        <mxCell id="Al5XGX1l0qWC6tel_waJ-8" value="ECS Cluster" style="sketch=0;points=[[0,0,0],[0.25,0,0],[0.5,0,0],[0.75,0,0],[1,0,0],[0,1,0],[0.25,1,0],[0.5,1,0],[0.75,1,0],[1,1,0],[0,0.25,0],[0,0.5,0],[0,0.75,0],[1,0.25,0],[1,0.5,0],[1,0.75,0]];outlineConnect=0;fontColor=#232F3E;fillColor=#ED7100;strokeColor=#ffffff;dashed=0;verticalLabelPosition=bottom;verticalAlign=top;align=center;html=1;fontSize=12;fontStyle=0;aspect=fixed;shape=mxgraph.aws4.resourceIcon;resIcon=mxgraph.aws4.ecs;" vertex="1" parent="Al5XGX1l0qWC6tel_waJ-7">
          <mxGeometry x="374" y="350" width="78" height="78" as="geometry" />
        </mxCell>
        <mxCell id="Al5XGX1l0qWC6tel_waJ-9" value="fargate" style="sketch=0;outlineConnect=0;fontColor=#232F3E;gradientColor=none;fillColor=#ED7100;strokeColor=none;dashed=0;verticalLabelPosition=bottom;verticalAlign=top;align=center;html=1;fontSize=12;fontStyle=0;aspect=fixed;pointerEvents=1;shape=mxgraph.aws4.container_1;" vertex="1" parent="Al5XGX1l0qWC6tel_waJ-7">
          <mxGeometry x="520" y="290" width="48" height="31" as="geometry" />
        </mxCell>
        <mxCell id="Al5XGX1l0qWC6tel_waJ-10" value="" style="sketch=0;outlineConnect=0;fontColor=#232F3E;gradientColor=none;fillColor=#ED7100;strokeColor=none;dashed=0;verticalLabelPosition=bottom;verticalAlign=top;align=center;html=1;fontSize=12;fontStyle=0;aspect=fixed;pointerEvents=1;shape=mxgraph.aws4.container_1;" vertex="1" parent="Al5XGX1l0qWC6tel_waJ-7">
          <mxGeometry x="520" y="350" width="48" height="31" as="geometry" />
        </mxCell>
        <mxCell id="Al5XGX1l0qWC6tel_waJ-11" value="" style="sketch=0;outlineConnect=0;fontColor=#232F3E;gradientColor=none;fillColor=#ED7100;strokeColor=none;dashed=0;verticalLabelPosition=bottom;verticalAlign=top;align=center;html=1;fontSize=12;fontStyle=0;aspect=fixed;pointerEvents=1;shape=mxgraph.aws4.container_1;" vertex="1" parent="Al5XGX1l0qWC6tel_waJ-7">
          <mxGeometry x="520" y="397" width="48" height="31" as="geometry" />
        </mxCell>
        <mxCell id="Al5XGX1l0qWC6tel_waJ-12" value="" style="sketch=0;outlineConnect=0;fontColor=#232F3E;gradientColor=none;fillColor=#ED7100;strokeColor=none;dashed=0;verticalLabelPosition=bottom;verticalAlign=top;align=center;html=1;fontSize=12;fontStyle=0;aspect=fixed;pointerEvents=1;shape=mxgraph.aws4.container_1;" vertex="1" parent="Al5XGX1l0qWC6tel_waJ-7">
          <mxGeometry x="520" y="450" width="48" height="31" as="geometry" />
        </mxCell>
        <mxCell id="Al5XGX1l0qWC6tel_waJ-32" value="ECR - Docker imagen Python" style="sketch=0;points=[[0,0,0],[0.25,0,0],[0.5,0,0],[0.75,0,0],[1,0,0],[0,1,0],[0.25,1,0],[0.5,1,0],[0.75,1,0],[1,1,0],[0,0.25,0],[0,0.5,0],[0,0.75,0],[1,0.25,0],[1,0.5,0],[1,0.75,0]];outlineConnect=0;fontColor=#232F3E;fillColor=#ED7100;strokeColor=#ffffff;dashed=0;verticalLabelPosition=bottom;verticalAlign=top;align=center;html=1;fontSize=12;fontStyle=0;aspect=fixed;shape=mxgraph.aws4.resourceIcon;resIcon=mxgraph.aws4.ecr;" vertex="1" parent="Al5XGX1l0qWC6tel_waJ-7">
          <mxGeometry x="400" y="660" width="78" height="78" as="geometry" />
        </mxCell>
        <mxCell id="Al5XGX1l0qWC6tel_waJ-18" value="batch" style="locked=1;" parent="0" />
        <mxCell id="Al5XGX1l0qWC6tel_waJ-20" style="edgeStyle=orthogonalEdgeStyle;rounded=0;orthogonalLoop=1;jettySize=auto;html=1;" edge="1" parent="Al5XGX1l0qWC6tel_waJ-18" source="Al5XGX1l0qWC6tel_waJ-19">
          <mxGeometry relative="1" as="geometry">
            <mxPoint x="370" y="389" as="targetPoint" />
          </mxGeometry>
        </mxCell>
        <mxCell id="Al5XGX1l0qWC6tel_waJ-19" value="AWS Batch" style="sketch=0;points=[[0,0,0],[0.25,0,0],[0.5,0,0],[0.75,0,0],[1,0,0],[0,1,0],[0.25,1,0],[0.5,1,0],[0.75,1,0],[1,1,0],[0,0.25,0],[0,0.5,0],[0,0.75,0],[1,0.25,0],[1,0.5,0],[1,0.75,0]];outlineConnect=0;fontColor=#232F3E;fillColor=#ED7100;strokeColor=#ffffff;dashed=0;verticalLabelPosition=bottom;verticalAlign=top;align=center;html=1;fontSize=12;fontStyle=0;aspect=fixed;shape=mxgraph.aws4.resourceIcon;resIcon=mxgraph.aws4.batch;" vertex="1" parent="Al5XGX1l0qWC6tel_waJ-18">
          <mxGeometry x="160" y="350" width="78" height="78" as="geometry" />
        </mxCell>
        <mxCell id="Al5XGX1l0qWC6tel_waJ-24" value="storage" style="locked=1;" parent="0" />
        <mxCell id="Al5XGX1l0qWC6tel_waJ-25" value="s3-datalake-raw" style="sketch=0;points=[[0,0,0],[0.25,0,0],[0.5,0,0],[0.75,0,0],[1,0,0],[0,1,0],[0.25,1,0],[0.5,1,0],[0.75,1,0],[1,1,0],[0,0.25,0],[0,0.5,0],[0,0.75,0],[1,0.25,0],[1,0.5,0],[1,0.75,0]];outlineConnect=0;fontColor=#232F3E;fillColor=#7AA116;strokeColor=#ffffff;dashed=0;verticalLabelPosition=bottom;verticalAlign=top;align=center;html=1;fontSize=12;fontStyle=0;aspect=fixed;shape=mxgraph.aws4.resourceIcon;resIcon=mxgraph.aws4.s3;" vertex="1" parent="Al5XGX1l0qWC6tel_waJ-24">
          <mxGeometry x="-20" y="507" width="78" height="78" as="geometry" />
        </mxCell>
        <mxCell id="Al5XGX1l0qWC6tel_waJ-26" value="s3-datalake-curated" style="sketch=0;points=[[0,0,0],[0.25,0,0],[0.5,0,0],[0.75,0,0],[1,0,0],[0,1,0],[0.25,1,0],[0.5,1,0],[0.75,1,0],[1,1,0],[0,0.25,0],[0,0.5,0],[0,0.75,0],[1,0.25,0],[1,0.5,0],[1,0.75,0]];outlineConnect=0;fontColor=#232F3E;fillColor=#7AA116;strokeColor=#ffffff;dashed=0;verticalLabelPosition=bottom;verticalAlign=top;align=center;html=1;fontSize=12;fontStyle=0;aspect=fixed;shape=mxgraph.aws4.resourceIcon;resIcon=mxgraph.aws4.s3;" vertex="1" parent="Al5XGX1l0qWC6tel_waJ-24">
          <mxGeometry x="760" y="500" width="78" height="78" as="geometry" />
        </mxCell>
        <mxCell id="Al5XGX1l0qWC6tel_waJ-30" value="" style="dashed=0;outlineConnect=0;html=1;align=center;labelPosition=center;verticalLabelPosition=bottom;verticalAlign=top;shape=mxgraph.weblogos.json" vertex="1" parent="Al5XGX1l0qWC6tel_waJ-24">
          <mxGeometry x="-2" y="453.35" width="42" height="40" as="geometry" />
        </mxCell>
        <mxCell id="Al5XGX1l0qWC6tel_waJ-37" value="" style="shape=image;verticalLabelPosition=bottom;labelBackgroundColor=default;verticalAlign=top;aspect=fixed;imageAspect=0;image=data:image/png,iVBORw0KGgoAAAANSUhEUgAAAlgAAAJYCAIAAAAxBA+LAAAQAElEQVR4Aey9B4AdxZXvfaq6b5igLCEkchA5mWiDjTMYGwzPOGKiEMmIZO/u5919u/u867e7b20yksA44AW8BtbLOmAD9hJNMNgYsMkZhCRQlibc0N31/bp7dHU1MxrNSBNuOM2ZutVV1VV1ftVd/1vVM8I6PZSAElACSkAJNDEBK3ooASWgBJSAEmhiAiqEzTT46qsSUAJKQAn0IaBC2AeJJigBJaAElEAzEVAhbKbRVl+biYD6qgSUwCAJqBAOEpQWUwJKQAkogcYkoELYmOOqXikBJdBMBNTXLSKgQrhF+PRiJaAElIASqHcCKoT1PoLafyWgBJSAEtgiAnUmhFvkq16sBJSAElACSqAPARXCPkg0QQkoASWgBJqJgAphM412nfmq3VUCSkAJjAYBFcLRoKxtKAEloASUQM0SUCGs2aHRjimBZiKgviqBsSOgQjh27LVlJaAElIASqAECKoQ1MAjaBSWgBJRAMxGoNV9VCGttRLQ/SkAJKAElMKoEVAhHFbc2pgSUgBJQArVGQIVwJEdE61YCSkAJKIGaJ6BCWPNDpB1UAkpACSiBkSSgQjiSdLXuZiKgvioBJVCnBFQI63TgtNtKQAkoASUwPARUCIeHo9aiBJRAMxFQXxuKgAphQw2nOqMElIASUAJDJaBCOFRiWl4JKAEloAQaisAmhLChfFVnlIASUAJKQAn0IaBC2AeJJigBJaAElEAzEVAhbKbR3oSvmq0ElIASaEYCKoTNOOrqsxJQAkpACVQIqBBWUGhECTQTAfVVCSiBdQRUCNeR0E8loASUgBJoSgIqhE057Oq0ElACzURAfR2YgArhwHw0VwkoASWgBBqcgAphgw+wuqcElIASUAIDE2gsIRzYV81VAkpACSgBJdCHgAphHySaoASUgBJQAs1EQIWwmUa7sXxVb5SAElACw0JAhXBYMGolSkAJKAElUK8EVAjrdeS030qgmQior0pgBAmoEI4gXK1aCSgBJaAEap+ACmHtj5H2UAkoASXQTARG3VcVwlFHrg0qASWgBJRALRFQIayl0dC+KAEloASUwKgTUCEcdeTrG9SYElACSkAJjD0BFcKxHwPtgRJQAkpACYwhARXCMYSvTTcTAfVVCSiBWiWgQlirI6P9UgJKQAkogVEhoEI4Kpi1ESWgBJqJgPpaXwRUCOtrvLS3SkAJKAElMMwEVAiHGahWpwSUgBJQAvVFYMuEsL581d4qASWgBJSAEuhDQIWwDxJNUAJKQAkogWYioELYTKO9Zb7q1UpACSiBhiSgQtiQw6pOKQEloASUwGAJqBAOlpSWUwLNREB9VQJNRECFsIkGW11VAkpACSiBvgRUCPsy0RQloASUQDMRaHpfVQib/hZQAEpACSiB5iagQtgg4+82ckRDPDZSzUaTh1h9tNGKNpKh9W8EzBCSG+QWVzeUwIgRaCohHDGKY10xkyJdIOzHkJ4hWT9VDJg0pMopPGBl/WRyyZCsnyoGTBpS5RQesLJ+MrlkSNZPFZufxF2BpdcTUVMCSqBfAiqE/WKp6cQwCOlfZamUTnOExhjb5/B8b0jWp4JNJAypcgpvoro+2VwyJOtTwSYShlQ5hTdRXZ9sLhmS9algixK4JVLj9uCeUVMCSqBfAiqE/WKp0USmM4yJlf6lEySRzs7OxYsXv/jiiy+88MLzyfFc1fHsEI+qSwcVHWL1zw6q0qpCm19/VSUDROu9/gFcq2R1d3dzt3DnpF+huGfUlIASqCagQlhNo9bjfLtnOsOKxeKf/vSnf/qnfzr22GPf//73H3rooQfooQQ2QuCwww770Y9+VOs3t/ZPCYwdARXCsWO/WS2vWbPmxhtvPOaYY/bff/+///u//9WvfvXUU08tWrQIacRKyVFOjkAPJZAQ4DvTKaeccuWVV1qvYZ/3zXqY9CIl0ENAH4weEDX4wcqPF4Fpx9LIT3/60w996ENnnHHG/fffb4zJrjsyyeF5nk0OsrD0QiJDsvSqwYdDqpzCg685LcklQ7L0qsGHQ6qcwoOvOS3JJUOy9KotD6sbzefzvu9/9atfnTdvHt+R0ntpy5vQGpRAwxBQIazRoYxVMIzQNd7rMHMtW7Zszpw5n/nMZ1j/cZoak1pqfO8nEq47uFatyQmsuxfiT+4NjHvpggsuuO6667jj2TggVFMC9Ulg+HutQjj8TIelRuZxz/dQQcIXX3zxqKOO+v73v+95Hms/ZrS0CcpUrHoFkOZq2LQEuCuqfedrEylIIncOWjh//ny2EqoLaFwJNDkBFcIavQGYs/gWjwrygufoo49mIYgE0lcSmdSIYKn4URKrjnOq1swE+MLE7dHXSEcCL7zwwgULFvTN1RQl0LQEVAhrdOidc7zXefPNN7/4xS++9dZb6BwSyBYoEYSQEEu7zvd9jESMCMZ3f7WmJcBdge+V24NTbgxCjPuHTVHuq/PPP/+KK64ghbuFEKNMxThVUwJNRUCFsEaHm4msu7v7S1/60nPPPde3i8xZFCCdSD6fP+igg05Mjs8mx+eS4/N6NB+BZOQ/t8MOO3Bv9LL0hiFEDgm/9rWvxb9Ham1FC3uV11Ml0DwEVAhrd6y/+c1vPvzww+mOaKWXKB8bXExkzF+HHnoo3+vZO73nnntuS45b1x233HLLj/WoJwLD0NdbbrmF8f/Rj37EjVG5YSoR7pzUuHlI5C66+OKLr7nmGvaQuZdIUVMCTUtAhbBGh/6xxx5D5OgcO6KEFeMdD9PWhAkT5s2bd//99/O+Z9dddx0/fjyJFWO+q5TXSPMQSG8AdK7Xl6dqAuRSjBTuK+6lCy64IF0XkqKmBJqWgAphbQ09k1QqYywH2Rpl2qJ/hCQSYsxfe+6554MPPnjO2efwXZ5trjAIuYostSYnwP0AAW6YYrHIDTOAHFKGwtxLuVzuq1/9KlrIhRUjV21kCWjtNUZAhbCGBoTJy0WO+eiBBx64++6704nM933S6SUhgrfzzjuz/bXPPvsEYWCNZYPL8z0uoYCaEuiXAJpHOjcJxl1EnBDj1uKLFImXXHLJ/PnzSS+VSqQTUVMCTUVAhbC2hjuM4uUdUseXeuavdFZKQzqKNH7ve9/be++9UUS+y6cSWMmlgJoS6EuAu4V7KU1H9jDuGQwVJExz586de/XVV3ODcQOSmBbWUAk0CYERFcImYThsbjJDMROtWLHiF7/4BUs9vp5TNftXJJLF9PS1r33tyCOPJIV5jVOMAmpKYGAC6c0zffr0T37yk5RMbxsSiaOChGEYsjrkffM111zDKQUwImpKoEkIqBDW1kAzPf35z39evHhxOkPROVIwJiYmsvPOO48IGkk6Rnq/RpZacxLg9sBxNtgJK7cQcdJRu29/+9tz5szhnuEWIoV0rBJhjyH+PdJ5ye+RsjWR/G8vKaCmBBqegAphbQ0xs9ITTzzBmi/tFnMWEaYwwuOOO2777bcnQiLFiNSWaW/qgcCC+QtOOeUU7qhsNkt/uZcIMVQTQyB5X8geKbvuEXLqHFlqSqDhCagQ1tYQo3BPPvkkYWWGon9shBJ+7GMfI8SqszhVUwKDJ1AsFa+77rrZs2ez8V59IyGNCCEhNxt7pPPmzUs35Adfs5ZUAvVLQIWwhsYuXQjyjrBXn5ie2Lbaa6+9UoEk7FVAT5XAIAlwj61atWrBggWnnnpqekkqh4TcZqkWslicO3cuZdIC/YaaqAQaiYAKYQ2NJt/B6Q3zFCHG3ITmYUxPEyZMmDhxIokVI7cS14gSGCQBNj8p2dnZ+Z3vfId1IXdRPp8nhQghRiQIAm7F888//8orr+T2w0hXUwINTECFsIEHV11TAr0JoHC+7/PVqlAosP+JFiJ7iB9qR0hpIuSyOmQTgveF11xzDemsI8lSa1YCje+3CmFtjbGLen49gdlngJ4NnDvAhZrV5AS4c1gU8iIQ/Vu9evVll112yimnIH5gIYswNbSQl4hIJu8Lr7jiCuQzLZPmaqgEGoyACmGDDai6owQGIsBSj2yEEONdIILHmu+MM84gEanrpYXkUqyyLqSMmhJoSAIqhOuHtZZjzFCp1XIntW/1RQCdY8+zWCyyR4oW9hJCfCGFkD3Siy+++OqrryaupgQakoAKYUMOqzqlBDZNgD1SjDUi7wtZF86ZMwdpJKX6Sk5JJAUtTH+PlC1TTtWUQCMRUCFspNFUXwZPQEsKCsfOJ8b7QgwtnD17NonsPaR0iLNkJGRpSOLcuXMpw/vCUP/RmRSQho1CQIWwUUZS/VACQyTA2g6FY83n+z7xjo6Oyy+//JxzzkHzqmtiycgpIcUuvPBC9lE5RR0J1ZRAYxBQIWyMcVQvlMCQCWSTf2UNSUP5UESkjvXfZZdddvrpp5PCyq9SI7nEyUULL7jggiuuvIJ1JIkYlxNWjGK1aNonJTAgARXCAfFophJoAgKp7KGLyBvvC+fPn8/7QmSPxWLqPTqXRhBLEv/iL/7iyiuv5KoojEhJszRUAvVLQIWwfsdOe64EhocAOoeqoYKEvCxEAq+66qozzjgDkSMlbYNIWoyQxeLFF1/MHqnne2muhkqgdghsRk9UCDcDml6iBBqNAJqHS6gdctjZ2cn7wiuuuOLMM88khXQM/SMrLUaYy+XS94WIIrlqSqCuCagQ1vXwaeeVwPAQQPB420dd7Hwicukpa75zzz0X/UsNLaRAWqxYLFJm7ty56R5pqVTiFKOAmhKoOwIqhHU3ZOs6rJ9KYLgJpFJHrSgfe6Rr1669/PLLTz/9dMQPIz21SjGWg+yRXn311bxfpEAlPS2moRKoFwIqhPUyUtpPJTB6BNK1HVugq1evRudmz56N5tF8mp4KHmKJ+LGCZI90/vz5ZKXpFFNTAvVFQIWwvsZLe9ukBEbTbfQPkUP5EDnf98vlMvufJ510ElJX6QZZpCOEGHH2SFk7clWlgEaUQB0RUCGso8HSriqBLSWAmCFdLN2IbKwuhC0tgwpShj1SNA8tPPPMMzlN1S6tgZAUCnPJ1772tSuuuIJTNSVQdwRUCOtuyLTDSmD0CKCXqfIhh+jcnDlzED9SCNNOEMGI5/P5Sy65hD1S4ggnodrmEtDrRpuACuFoE9f2lEB9EUALMcSvVCpdc801qRYifiRi+ELIbirix24qe6S8U2QpyTKRLDUlUBcEVAjrYpi0k0pgjAmgdsVisauri3XhWWedxSlaSJ+IpCFayKoRLbzwwgvRSxc51ULIqNUFgbEUwroApJ1UAkogJdDS0oLUdXR0fOtb32JdSCLLRIQwVUROiWC8L0QLr73uWnLDICSFLDUlUMsEVAhreXS0b0qghgiwwkPkWPMRWTB/AetCIrlcji5W1I4N0jAMUUf2SFkXer5HSiWXkmpKoAYJqBDW4KA0ZJfUqfomgJhhLPIwIh2d8f+z6dRTT+3u7iYF3xA/woohmRdccAFaGP+tfRhV0jWiBGqQgAphDQ6KdkkJ1ByBis6l4BLzDgAAEABJREFUkUKhUCqV5s+ff+aZZ6J5dBd1JGT7lBAjEYFEC+fNm8e6kBQ1JVCzBFQIa3ZotGNKoBYJsB1Kt3zfR/l4ZYjOnXLKKagjKz/CYrGI/okIWZRkHxUtZF3IJZxyCRE1JVBrBFQIa21EtD9KoEYJoHOpkhFhwUfI+7+1a9eyLuR9IQtE1LG66yhi+r7woosuuvrqqzmNwiitobqYxpXAmBNQIRzzIdAOKIG6JICkYazzVq9effnll7NHyiow9QSNJEIWBYigmhcmf1PBHilaSIpaIxFoAF9UCBtgENUFJTAGBFA7FI7Nz3RTlD3S008/vVc/UiFk4UhJ9khZF6KFvcroqRIYcwIqhGM+BNoBJVCvBNBCjN7zarBQKPAucM6cOZWFIOkYp5RBEZHMdF1IvGIUUFMCY05AhXDQQ6AFlYAS2DgBtI3XhFddddXs2bNRPt4XEqbFyUoj6bpwwYIFZFE4TdRQCYw5ARXCMR8C7YASaBwC6bqQPVLEz9r10wvrQpwkkXDu3Lnso+ZyufSUFDUlMLYE1t+pY9sPbV0J1BQB7czmEejs7Ozq6uJd4JlnnokQsvJL6yHOm8JUDlks8r6QdSGJaa6GSmBsCagQji1/bV0JjBSBisykCy9CbKQaW1dvNpsNggA5vPTSS08++eR+W0QO6dtXvvIV3imGQcjpuqv1UwmMDQEVwrHhrq0qgcYjwPovk8mw58mar7u7+9prrz0r+f9UkIIikpu6HIax+JF48cUXL7h2AYlj/b6QLqg1NQEVwqYefnVeCQwjgVTtWO2heazz0MIrr7yS94XFYpEUrNIWJdkppSR7pOyjIpyUr+RqRAmMMgEVwlEGPoTmmCyGUFqLKoEaIMBqj16gcBj6x1KP/U/eF3qex/3crxbG68IF8bqQC9WUwIgT6K+BJhVCvn7yWAIkfUXBKZFhMarabKMDQRiwucR8kU4o9DC1dB6hzxG7Sthmt6EX1gYBxhpjcNOQSGMYt24KmDsWI84rw/nz559xxhncvaz8Km5ySpwCXDJ37lzWhaRAAyNdTQmMJoGmE0IevHRPhueTB896fHONzfO9YbG4rs39oQPZbJZeYdwEaUiE+pgsUoGMO7yuz6Sr1SsBzxprGNzINez/oggh5L7lcVuzZs1VV12V/q09LvcymxysCynD7Q0Q1cJeiPR0pAk0nRDGD52JvfYyGbTwrbfe+ulPf3rLLbf8+zAdN27B8eP/+PENN9ywaNGiXqOOeBcKhdtuu40CNw320HI1TeDuu+9evHhxWC771us13I10ypc5jBt4+fLl6b9H2tc7Hkn0EkMLWTumq0Yu6VtSU5TACBGIJWGEqq7Nal0YeJ7HY/bd73336KOPPuCAA0444YQvfvGLp9XA8aWTvnTOOee8/PLLfdGtWLHioosuOu30005NjlP0qHMCnz72uMMPe+/xxx+PIvYd7oZJQd543NjMyOVy7Paz/zl79uxq78hiyUgWepnP59kj5Z0i60LK8JASqimBUSDQFELIMwZKwqBUMJ559cUXPvWp486Zc879D9y7es1K34rPl1JrPS/bn/EgD8HsFhw0w4zA3IHJhgedJ4FcyqjVOwHuNwnDRW+/feev7vzUJz/JnmFHRwfju/lWw1dyM2N0kA2Yrq6uK6+88swzz+SUB4V0bmlCTjG2PdDFCy+8kDLkYtz2qZGrpgRGjkBTCGGKjyfKz+af/P0Tx3zymDvvvDOXy/m8lLPGYTyLJn5hk5Ycq5AeYnwRJuzbBxLVGoAAI2uSg1e9ns896H/ve99jT2LV2jVkNaThrp8cDB9qx7rwrLPOIk56GlZ7zWvySy65hD1SsorFIiHFqgtoXAkMO4GmEML0QYpEeFHx+ZNOef2txdlMtljsLpWCcpm9UsfX0sRKYdjXyB0liyJxjiFGkjGGptriFOeMWr0TYJTLoStHYTEKuQExvpP98pe/POWkLzP2DW88jOyFLpi/gHUw3/lSf0lMI4TOOdaF559/PuvCjJ9xEQnxU0GWWkpAw2EnwFQ77HXWXIU8bxj7Uf/wjf/z0ksv8WCVygWePeNLbHwztwNw4CEcTdsYPYSQjqs1AgHG2IjxEjPGpOueO+644zvf+Q5ZjWc8fanhLCKHv51dnegcWoizjCjpRMgqJwebqOyLxuvCBfON5csfDyD5akpgpAgMIAAj1eTo1xuGId8rn3rqqZv+/UaRqBwU6QOPX8ZmXUCC4yklBQNHxTwjyVRFOASz4obFPHG9jGp7pehpfRHgVrPCxkTkeSZk8e853kpzH1pPMGPdFVdctmzZMqEcy0Y+GsiQOgyHeNby+Tx619nZefnll6OFEPA8DxXkOaVAahQj8aKLLrr22msRRf2DihSLhiNEwI5QvcNQ7fBVET9pvsc37jVrktcwRgS/jZRKJRpxOSdtInmRFomwvERYTkIs78IWFxK2unBwFl/L5VtsfZuj5r6JmlJHBLjHGEThvsqFkjdiDZvzYpBESY8XXnzhgQceQANc1FBroFQCUx8JcRCR46UhynfVVVfxvjBdApLVyyhzwQUXXHPNNbzNVy3sBUdPh5EAgjCMtdVoVbx+p2cPP/wwihg7zCSDifi5rGQku1v7IWe8f7+zDt3nrIOxvc86ENvrrPfsnURI2efsg/c9+5BBGoWHxfo2R7V9EzWljgjsNec9u8/ef7+vHLrTcbv7k7wodDYjhm2HRAutE+zxx39njLMe6hhy0zae8QwihCY5iLM0nDdv3qmnnooW9nU2LYkWzp8/X7WwLx9NGS4CdrgqqvF6CoVCuulEP2OfEyEMiiVpl2PPOP7Qzx5+wAmHYO/5zKEHnvhe7KDPvu/g2A476MRDsAP/18GDtPd85uBhsb7NUW3fxIZJaQZHDvrsYe/9wuH7HLv/5+Z+4ZgvfUrYNigLm/PGcFf22KuvvUosCANjqlJJahQzxqTyRoQVIQ8m+zTsf55xxhnVLqa5FMDYNT3//PPTdWF1GY0rgeEiEIvCcNVVy/XwxbOrq4seGjGxGQ7OZNz0CdN2nr7crVrlrcZWmlUVWy4rl5sh20q7alisb9NU2zdRU+qIQDqCq/01S8rvTNxxkowTyYokrw1dJJGRIJI1qzuM8TyWimTEd+jm/6A36cXpvU6IpSljG3rJv2hB94jw/g/jJQU6l/59IYm9usfDS+KFF1549dVXs4hkj5SwVxk9VQJbQqBZhLCKES5jPQnORKEXlP2g7AWlTKm3+UHgqSmBYSbAzVbMlGKlMz33IR81olL0ZORtfQsoHI4jdWvXrr3iiivOPvts8lgCElYbypfL5S666CLeKbJHyj4qKdUFNK4EtoTAeknYklr0WiWgBDaHAFv0WHqla9KHEUnDWCB2dnay5mOPlAUi6oilYAjJJdH3/YsvvpgyKCVaSLqaEhgWAk367A0LO61ECSiBLSeA4LEuRNsw1K6yR9qrZrSQhSP7qOyRXnnllRTuVUBPa5RAPXRLhbAeRkn7qAQamgBaiOEi67xCocAe6ezZs1kmkpKmE0kNOcxms3/5l385b948XhZymqZrqAS2hEDzCqETw3+RiX9JYUsI6rVKQAkMIwH0Dzlk/zP93RmWgGnlKGJqrAvRv0suuWTBtQvIYhFJqKYEtoRA8wrhllDr71pNUwJKYNgIoIXz589HC9E89I96EcjUOCVCeMEFF6CXvDikDAXUlMBmE2hmIXRV1CIxUdWpRpWAEhhLAsVisbu7mz3SOXPmoHnVXUllj4UgbxbjdeGCeF1YXUDjSmCoBJpQCBE8rF9QpPe1fktqYnMTUO9HmEAmk2FRyPvCSy+9NP2bChpE+QgxVoRsmRJS7MILL1ywYAHqmG6ZkqumBIZKoAmFcKiItLwSUAKjTQBhQ+pQPiJXXXXVueeeSxxLV4dIIEafCEms7JE22L/RioNqo0NAhXB0OGsrSkAJDJYA8oYhhBhC2NXVddlll5166qlsh5JSqYUs4mEY/6OsF198MetCz/e4kMThNa2t4QmoEDb8EKuDSqDOCKTLvrTTqB3vC9kjvfLKK8866ywS01wEj7Vguh1KnD3SuXPnzp8/P82lmJoSGDyBphVCHDeDx6QllYASGBMCLAEx3hey8mOPNP37wmw2SyL6V+kSiogEooXXXHMNiawdCdWUwCAJoAfrSuqnElACSqA2CKBq6ByG4LHaw4izLkQLTzvtNHTO931SKFbdXwpfmPzb3Gl5ClTnalwJbIyACuHGyDRtevp7s03rvjpeWwQQM9QOhSNk2bd27drrr78+1UJSsEp3iaeF0UL2SEnnlFBNCWySgArhKM37yb9gQ1v9jkj/o2Cc9DFrHBan91uRCE1UbCNFkuRhCXp1b7PqxPdq66kjrbnnZP1H7NrYzW5x6+v7MlwxN1wVNWw9bIriG1qIMfqrVq269tprzz777IrypbkU44Uixil7pFdccQXliaspgU0SYA7aZJmGKhBZF8UvB5nUXPpPrFXcs872tUrulkRQQSsBlggVMhaLWRKnG1Yco0DLniPZufiX4CKT9TMZz/eMsU68yGKZ0GLZyCNu8CEyVjzMOGpyNCFRKC6M6/BcZKPIxDbUbicVy7prI6qmZuokEkYBDdCmtRljvFiSI0NPKsZlZImXicQ6xzRlfGu5lhq4nJ5EMXk+IRCbSOw7hTG89rxsuUyLcZaVCONCvMOSyyOq8kl1IZDiWob+Q59plMmUS+lh3GHxfJPBIImlBSiDg9ZmoqAsUUgH4p5QWugextXDao4bQMQMc82wl+RY5y+fLkmos4A7CXnDPG4RXg9ms+yRVv6+EDfTjdBqr7jkq1/9KlqIz6QTYkTUlEC/BJInsN+cBk408RwopsdDl0TQm57zUfyoCANToItcWIqyJj/eG9ca5s0K5y13/jLJLLXj1rRM6GybWpw8I5gytThxcveE9jUt2RW+t1wynX5L0JIPc17ox9qZydB9E23+fIcggyI1wLgw4ouDb3LZKEcr+UIm1+HL0pDWx69tndw9cUaw1VbFKZM6xo9b2zqxe1xmufjLXH5tNl/I5Yq5bJDJhL4nsWrSMaolRFeI0BARLIkLZTLOa/fb8lGuxWVyLpdzLS1RSxLJ5aOWvMv5gefKLssXgMiEUeTcENysoKZF+pCx2Vabz7ksdfolkynbXOBj2ShDBzCvnDFFySL5kYsifoBhRVKjgvqyxuktCse4s/jr6upCC88880ziUcQD1NtHFPOSSy5J90jZU+2dredKoIoAD3bVmUZHgABTsBMbio9FTOJxE1EcJD/x2ssGYiJGIm/zttvLdGSmlbfat23PD05//+f3/cw57z/z3CPOPP+9Z53/vrPOf+85c99/3jmHnjX7Paedsv8Xjtrho/u37TOte6vs2rxX8EwUrwTLoWFZw6rROosljQwt4HIj4jmWdZJFXo0fdbpsV25C94Rd/e3fO+Xgz+11/Kn7ffHsQ+dceC/EBCwAABAASURBVMRXLj78Kxcdft6FR5x74RHnzDnw5LMOPvWLux334amH7ZXbfXJhklthok5jA0+E5VxqPZ1BkLxIWCUbCVhv+eJKa7ttp/gd1u9IwrW+XZvNrvWxOHGtzXdmWktZU7aeGIyKmBMxIgNbPAS0QWsJE995QWdJVodUmFlrM2v8zNpMatk1mezauMV8l5cvZ03Jt5LxXEac7yIvckb0GFMCDHdqxhjWhddcc82cOXN6CSFZlEH8WCxecMEFlMlms2Paa2281gkw/dZ6Fxugf0zEwiws1rrYG6ZTjJh16Z6nz5zbVshPKk7Yf+p+xx74qZM/+KU5HzjzSwd/7uidjjp82mEHTTzwPRMP2Kd9z91bd9sjv8cBE/f/wMwjPrHDx7+w34nnHn7m2Ued8b/e8+n9Ju7D+swsNS2FXCbIskA0SVu0MjSLDL2ykUUO/aIfLC23rsnv1rbrR3b98CnvP+nMI+d84YATj93lkx/b7sPvnXzQfm1775GbtU/rnu8Zv+9BEw48Ysp7Pzj9iONmferUg04+4/2nnvXxMz5z8AmHbn3Q+K7x47pb86U8q8O48rhj1hlB/glExDopF8o7z9z5mIOPOu6AY47b/1M9dsCnPpXYcfsfd/z+xx273yffu/P7MkVfIo+LuHAIlm4/ioAl6ijtOXPWMe85irb+14HHn3Dwcccf+KlPH/DJ2PY/5rh9P/HJ/Y/6xP4fP2TWQV7ZOmeS4RMOmBCqjRUB5A2j9Uwmk8vlgiBgXXjVVVedd955JFabMYaSCCQSmP7uDCnVBRo5rr4NnYAK4dCZDfEKZnmM+Tc1ruYRZWevXIzijbgww7pkSufED2/7oa988GzWecdOPWq/zF5TZep4mdgu7S3SlpdcVjJ+YlnxcuIn8ew4GTdJJu5ldz12m6O+csg55x9x9mf3+NS2pSmthUzWZKQcspyhuaFaqVSSyPjlTK7Yst+U/U4++EsXvPfcL+382cPb37u9bDdNtmqLu5TNiZeN5cgYMVY8X7yMZFqlpV3axkn7djJzX2/v42cec97+c776sfM/uM37xnW12E7JuRzSUnKR8yVZc/LlgJgvxmPteOTkD3xq6098esZxn57xqU/PPObTM44+dsYxx8741AlxynHHzjzuqJ2OmupNzUvGE1M5Nukg6mtiIbRiIj8S9mwP2+aQ46Yf+6mtjz1uxieOTey4bY7BPr3tJ7HjZn7iEzM+vrW3lRdINusb1vNeSIsYg7jJ5rTACBGojDhPECLHgi/VQvZITz31VBpFIClDJA2JFItFis2dO/fqq6/mxmaZyIVcTpaaEqgQsJWYRkaNAE+pJ97k1kn5Qm7c2tb3bXvInKNnf2a3E/b199pOZrRKtlXyLZLJCuLne2IxK7ZiRuKUjPiZpExecq3SMhlFzO9+wqxPnfmxUw/d9pD8mky+nPfKmUQAZJAHs7wN3aSWiZnuzEx/xv869PjZR5x+xLT3TZPJ46W1nYYcHUOV/YyL17ImintlxGKe0FXfOsTXZpyfFb9FkOrWidK+m7/zZ/b89FlHn3HQ1gfmOjLj7IScn+suBWwLy7qjdVz7smXL3l725ngZ3xK31d4ureNiaydslzwdmCTjp8tWu2y1U9QVGmfXXTrYT76OUJQLp+Wn7TR+x7y0wq1V2tqkpZe1SM6ILHl7kVhbDgPWhCIR16rVDgEeIt/3s9ms53nskX7nO98599xzeV/ISpFOInUUIJIaJS+66KIFCxZYY9HC6qy0gIZNTmDIs0nN8KqzjjCZpsaUasXzy160rLidN/30w089de8vH2D3GyctVph+jRF2DV1SLLKCxXNwJDaxOI7ncTmJS4tIKOKwSExo22XCftn9Ttrrc186+LMzzcxsIevFFVCqtxlhwy/qlcrKCQELV5T2nbgPe7Mfm/KRGbI1apER38WNiBVmGBqMuDjupbERachFHCaVGeokNxDB4rgRi8yMk7YD/H1mv+eUT+9z7Pi1rV6X155tZX0WWeQwIOwOO4qm85Xlr3VKlxMOK5Lqq3jESBBqM22S32O7PVBKuhqnJT90BktKcVWS1DuAQkRz1kVsz+40deetZYbXw4+iXLWBhRK9Hrz+8opXwhYJcVHiXGQbw2suUBtzAtyIJjnoSRAE3d3drAtPO+00RJFkEtOQCMYqkHXhxRdffM28a9BOriVRTQlUCPCEV+JNE3HGMNdiicdxXCSZSZPzkQmoP/6TBhsZZ3O8w1ttD9nuoDM+fPpBk/ZvD/Oec/koK0VnWH6I9ZJJPe1IFH/Ew8RPL4tz1v3w2Oe9nHVsUWYmyvgjtjp89sdO5d1ea7HVD7I0uq5g/59cThlEoqUrf+CMA79w2Oe2l5lt0pYLMtl43embHtmIWFeZCHZ4gsW10av4Y91P0uH0JCIev6tx0ias8PKTZBwvFz972AlTyhP8DvGQJ6EIP2ExKNk2740Vr6+W1YHEGVRbMcYnrdGK2X7StlOyk7mWPqeJgwmZ+xhofPRCf+epO7RKWybmbKgQ13pZJO7Vpa8sD5ZLVphA0/qdESyNa1gLBMKQ72TCbYChf2gh7wvPPvtsz+MBir+ykc5mKcVSI/2SSy5hXUh6LfRf+1A7BGztdGV0emIjw1Qu8Xd8JjZJ4j0tRybqaz15W/wRBk6MVw5dVnLZztxH9/jwl/Y7eQfZoUVyLV42Z3zf2jxPrfW80EjI0ssX8SMhpI8OOZHISbjOIiZ2l3bKiGC+sbGkEBObkXy7tO0us84+/OxdcrNai+0soTwv66yHGQ7rCDArBMbnjRuVBJLpzu879eDPH3jSDrLdOGnPic36Hs3E843Eh3HWimeMZxH2QDwxAS8U4xyhe/RJEA7xbGLEyaHrgTFlcaEYfB8vbe+b9N4vHHbi5ML4fJDzSbPGGS+bzQD/lWVvvND5kkgYBSURWo4ElZRI4vGy1OaJN1O23mnSDkF32TNGGEBnSMfSorKuJCnVZlgLer4rm5zL7TmDNaXJSzYql+26QjRGFO4iriiF5996PsxHLipL2RlHqdQogqVN9QpJVxtVAsbwxDIK4nkem5/WWgTvyiuvTN8XksINGQTcfRSMjVw+zj//fN4X0tEwCDEiakqAx7vJIUAAG3EInu95kT/Rn2DWuCN3PeLTexw7Vaa0SD6TSF0yfYsRMczHqUnPwZkRnl9hzl9nJs3r229mBcyKzUi2TVqmysRTP3DSTq3blVYVMs6zUc8VcStUEc/vfEh3sWACQZZmtm593CGfnCqTPbHsIloynaSNpXExBt2JjDik1DcFKUdZUxJUq1yQQtJLruGK2OJLkEcSEjNiPbFZyWTEvGfS3kft/xHb6ZmyDUsRGcxZoYTdtvulRS8FUjaeJz1HhEdplA0uJ9IqrXttt1s2yrig51t/mmsl1sA03jeM6y+FfujvuNUOM7Jb5SWP4GV4zVpVNAjKJQnLEiwpL13atcL5CCEq2FOCbkQDtdBTTD9GmQAjS4uex/cig+x1dHSwLjzzzDOJ53I5sirG/YlR8sILL0QLeSQZYNXCCp9mjjB7NLP7o+e7J17O5fxV8oEdDj921lFsErqw7EksKaiKOKZljA8hLTEEgDWgcEQSBhIEUgwNlqwKTcQSR2SdslEoMbuhGGTETpeJXzjihG3y02wRlWXBw4s3pnQaRMoEVRMT0QEv9FsLuY/te+R0mZAR1yIZa6hM4p6kQdI1TmnYiOmS7m7p5n3eaulcKR0d0h1aV5BCUQqBlKOeZVzckIh4EnmSaAiVRC4vfjaUI7Z7727TdgtWR625VgkjEznjeS7jXnn71TXS6YzBOxHWkdaJjSSu0VrrC9plt5u27eSWSVHZoLNIMk1QyDjBiCdlk8+qgGuz4nsFu/NWO7Hla/FEuGB9CdoTzyu7clHKLyx6cVXnGpvxIlqg2PpSGhsNApvXBoqI8W2ps7MTLTzjjDOKxWJ1VeSigqRwM1x00UXz589nC4ZTNSVgFcEoEDDOZpCWTpk1budP7nX0JJk4XtravHzIfmnafDwNpzHHh7NhSYJuKXRJ11rpWCorlsrKxFYtk9Urzdo1Zm2n7SpJKZSg33mfSjBPbLvkd5RtPvGej2fXernAjzc6nSVLUJdU6pz1rW9KZq+t9zho0n6oVC4uEFqhmEkq75FbVKFLSmul61V5/f43f/vzV++4/bn/vuWpW2956j//69mf//KVXz+85PGXC6+vkrXIYVlKqJcIumupirqSRkng07Xa/Dhp/eC+R071J3uB4YioXSKTdauLq95a8xYSWxZQrL/OOWGOS5IMa9ZtJm3T6nKe87iWGtN6k0jSbBKrBAhkLLSBTPYn7j5zt7KUJRZCIxseWWMj41bL2pffedVlopCJ04izJop7khQlKv3Un+RpMMYEuBPQObSNSBiG8+fPRwur+5TNZkulEncRls/n586de80113i+V11G481JYP1E05z+j47Xltm0YMa5CcccdNw02SonOcfkGolFJpIeMLlGTMuekdikZMIO6Voi7z6y5rFbX/mv6//wvUt/e9U//s+/fuM3/+/bj1wz7w/X/+ytu54uPbtUVhSlGIgLSgEDicmGhxXrRTYn3vsmH3LE9u81neW2TI7pndVX3BwqR6MiGZcd51qP2ON9E2Vcq+R940usE0z5dFOscEQu3jMsL5LFt7/2i8t/fdV/PHPrbc/8990L733wnYcefOfBO9/69a0v/vR7T9546b1XL3jiuke6Hl8thbKYCB/jCuI68DGpVcSZjMnnpWWvlln7TN8j7Cx5xmCO1vyoZEvoEC8UWQRH4iS+nA7EYKBIzBM/Jy07T90xWBP44lljuTqunLyNWz7b4rqDHSftsK2ZmZNsUpDKuS6W+bh/gr9ixCx2i19d8brLGvFcZCJrxZi4pJXI8il61C4Bs+5gLdjd3Y3OoYVu3YE6ks+ZtZYCSCbrQvZIa9efpuhZTThpa6IXjd4J1ChfyH1034/ulpvVIq2eWJO6zAxrmIvTkziMJCpKsFRWPvzOY99/8N9v+91//eb5e59c+cyLpVcWe+++7S1+qfDy40uf/MWff/WDe//9tqf+649r/9QpHVE2CiSMr+/zwzOflZZx0v6hvT8w1Z/kukMPTTE97VPcOBt2BtPapu3Qto0vTP++OCuCkZlaFEpQNOUlsuSmh2755VO/etdb2jmuEG0lhXHlYEK5NLFcIpwcFCaWV7SsfHLFn39w700/e/5Xa6XLrXNUxEh84CxiYsXxPdxvl7Z9tt3DLxlWaPTTudAZCb3gzZUL18ha/HHJVVxZ1RteXvoZye689c6TMxNdIC6kYFw112JxrL+fQqGQkdyOk7drj/n7fYvQRCSuJOWXlry8KlxT9hDxuNQAdcbZ+lNjBIwxfnIgeF1dXfPmzUMLSeQGq+4puRgF0cIFCxaQxWKRUK05CfD4N6fjo+p1JvD3nrr7kTMOsxK1iG9dogfGiRCJe8IE3ZZNAAAQAElEQVQwYKWwu0s6X5SXr3/4hzc+ftszhZeX+qvCKTZodWHeFf1SmCl77eJNkML4ruVtKx9999EbHrrhZ2/87G1ZWJINXofElfb8GCPGij/T23bfHfaXLoTEGmOSpmnd2sinVt6cTZIpTiyWLhZFWAv16GEowXJZ9p+P3/7M0mfMFN+2WGfLpVKhWOruLBeL5VIQlsJysVTukqy4dlMcH/zqxbt+/tqvuqVYijdv8VSsxKFwGIvAGWG72N95q52ntk3zI0vDabuhEYTwzeJCEeeJ8eiHEOWHkJ3K2KzY7TPb7jhtexNESYYgV2HyP9xIT9OqiJt1bXpiJo6buNeOe+ck59GX2ISLMYqlFkYRQvjc2y+XW0Jqo06xJs3SsB4JGBP/+gw6d/rppyN71S5wygZpEASUOf/881k7skDUX5ypRtRUcdtU3vbnLDMh1l/OFqQx/2JUQOhFfjbIHrjdAVNkQpu08KqLdGdoFBNh0zGOsygKil756dVPX/er7/x5+Z+DSUE4QYrZ8tpwbbfrLrliaMKyCbuKXQVXKPpBl9fdkSssz6z8xdO/uu2P/7VWOgpSTGqk+h7jlFWOEZuXfE6yh8w6aJxr8yJfxJN1B5rW7rdtN2VbI7EMrkve4DOQ6M3Cwj8t+rOZ5BU8tK1Evz3f+BnrIWE9ahWJ50IbdgTdnV6xPC767UsPvdT9ohUbxYqTVsj9hsVx0jPij5P2badtm3TJMiXxWi6w0fLyyteWvRqJi8vxs+6TaGqe+K3SuvO0HU3ZZLxsmkiIdFUkkFMrhvkO88QLusMJmXFTs1MykrHkJXXGETzhNAnLpnt5uGzhije7XWcYy6pQG5bka1AfBJC31FgCom3lcrm7uzv93ZlqB8gNQ775xGV937/gggtYO1KAc0K1ZiOQTgXN5DXSFLuLRjgxcazqBxp9rSp/EFHeKjGpsr7BJAqRGduV3bZth3233jMrflY85uZKNUz9YuiJYWMzkPLT5Wd+/PitKzMrvEmu6LqCoEiuZ9KFkWclNrGeiDWsm5yNPFPKSXF89Mclf/7PP/33clkdiltXec/OHoWtxIuxrNiZdvqOE7cvry2zfhPnk0VXeRGWl+yU9okZ8TwxXpK6rpL001LpolXvFr1y6IeR5wLHdiT6Eu9JGocSUsCG1gZiQmeMh/KFpsWuKq965KXfrZQVsUJHoeAoqp8aNTrxJZOXlqyXj8rGxeBMZGzJhm6ce+7t50pSiMSF4lxqfBrnjItgKtIiLbtM26XVtvBNwkQOL7yIF6Jxh+OaksagJ0mE/uWDlp23mjVexgXxCpVi1A0Wa4GTFAqF1UH40jsvrC2tyLR48T4tLiZG6Srre4ekKVVFaiNamdONMfTIJAeRxrbEyzhg6CDgeR7LvmKxyJrvrLPOItFaSyJZ1RystWjhdd+5jgjrQopV52q84QnwDDe8j30c7NHCPunDl8AyArOebfHzLUGOpdhEmZiJNWN9Gzys8Ymx5ajI7LxY3r3jD3ctDN/t9Lu6bXH9bB4XSn+sJLN2chLHnZHQRuVMWGotP/jKo08sfapbyshNUoCilaiIE0/sZJm4xza75dBjP1cpYwRlYdVmSYm7lEgU8V5WKHXjkUOCw/jXQYljSRk+o0Ry4jNmEFSHWKFcMC3yxorXV8kavGOdV7JBGpZsqWRiY6XrxLa0tKOCuBaJTT2KvOjdNe+80fUGWugkogEqTEMiicXbqtu0bzNj/PSwI/AiYUgTQ5WpJSmC084RI92L/PH+hD233cMK60efRDFxkP7gORZK1CGdLyx+3uUkgZ9mbl6oV9UKAW7IXC7Hmo/3hVdccUWqhb06hyhiqGO6R+r5HutILuxVTE8bmAAzQAN7NzauMWWHLDaMlEshC5xtWqcesNXeHsJU1Z1YcnpOPcSsQ7r/8PZTry59TViL+KyJHJLQkz+Ij7IXFdqC373xh9US//tkkUTpRXZdJJn3rSf+1hOnT2gZ78KyjTUCrbDiLB3GhB46m16IcMaWnjhrxI5vHZ8V35SthN66khSOHMsxQ3M9xoLNUN6JsWFoyiuKK1fIyrXSvUa6O6SIdUkJK0iAdZtuejBuQiv94cKeLokUy6XuoPD6u2+WJEh9ccZIcvR8CA6ZCTJu1jazskHWi6yJl7LCEYuiCFUxkaGv1voYK+7tJm6zbW5GXjKhOIphqB0mICIBvRVZEr373KJXHPxp1VBEre4JcBvggzGGCOvCq6++evbs2eVymcSKkUWcnVKWg6wLWTtms9ko5JYmWa0pCDCXNYWfo+mkM4IhLVkvG3YGu0zZcbKM98RW+sBjWYmLMA2bxbLkkecelXFe2Qsk62cyPSu2qmIDRZnQTZt5eekrTyz5Y7d0l5K/LyxLCSEJJCgJW4+EiIqbOH5ixvP9SJjnUQvjJO0qyh1tvAUrdtvxM8YH7Zku1+Kyyd5k6k4arr+S2pKTiMmFzdcu0/XLp+/6z2dvv+Xpn9zy1H/+x1O33vz0LTc/fdvNRJ669bY/3n7r87c++doTLh8hx2LoAsaqzefLwavvvNwpXSFCldToIpd8xkHc+Ric23n6ThPMOC/y8SWSngLEKQBk+iDxVnLWBpkdJm+DcHYEHSZ2Pa5kgx8jbI0+89ZzXV6BDWd6v0GuntQnAW4ADIUjRNsKhUJHR8dll102Z86caodYDiKBnseD4XPboIW8L2RdWF1moLjm1T+B3hNZ/Xs05h6A1MbTubOeeC0mv9+O+7ZIzl8nhDxplS5SrCTlbgmefOuphd1vFzyWkFE5LGEU69cq11ZHnJHAd12m8NqqN1bK2k4prJUCYYd0dUgBWxv/bX6pQ4pt0j5uXHu5GJj4pV3okqPkSl3l7gjJMdW1irh4vUhSRvw9srt/5rDjJpfGe6sjU+S1paUCz3qel3fOxBprWYzhOC8Lo1hWPVOyYVe+/Mzy5+5766H/efv+Xy+69+7F9xLBiHB6z5IH73nrvle7Xi23lCNWbbREm0bKTF1ZeXXFm4uixam42SSrOiAlJ7ldWnaemplsi5QiQeAgcKbbEsudl/HxT0p8wWjbfQZ7wpl2v42lgfQc4MckEWAXSvjyO68G2SiQ0FGJ6FH3BNInCDe4DVA7blYiGGu+s88+21qbz+fJpRiJFGClSCSTyVx00UVoIVklvkzyodboBOLpo9F9HAP/wIp5kW3PtExtnWzEmKQXxqSfyUkShCKrZfWf33g2ahN2OFlHkmzQJD6GYFEQFHMTss+8+zzLrx//+fZbn/7Jj//0k1uxp39y69O3cYrd9vRPfv78HSu7VuXbeP6jRAAkQhJtsLp7FT1jFui3TU+sFe+QrQ+Z88nTPrDz4dPDabk12bZi3u/2c0E24/IZybJratLeJ1WwLHMmKnulQqYUoLwTisUJxdL4OCSCFSYWO8d1drcWKBDaAA0zyJlIJOJlM8WovCpc88q7r6FPSX29g0hA6abIpN1nzHKleC/UJEdVFwQ99cRDYdts+7S2KRnx4lNjqutyyW8OlqS0OFiyvHtl2QsiGxmzQZnq8hqvUwJm3d8XInjdyd/asy7kDunlDupIARIvuugi9BJR5KHASFFrYAJ20L5pwcESYEJPjaXNVhOnT/QmpXuJPIq9qnDCsip4c+VbK4oryn6ACqAfnossb7diRehVfKBT1m7dYceScNF9bz3w67fu+dXCewixuxb+BvvNW7/B7nnr3vtef+Cd4N2OqCOKtSdCq9iEDD33xqLXu6QLUZT+JcAidS3SPsvf7bS9T7ngw+cfv+uxe+V2n9I9KduZNR0u0+2x2MpEnudiTcILCLBCxGXnhcJrUBuS53nGt4bQsFTzwsgPadGGxgYe5XE/9bDMIUHRL7257A12R02i2MaaSgGWfty4RkxOMjtO2yFrMpFz1nrOsjqVyAiSiknkPPG9wOyw9XbT7HQjHldJfMSf/GDG8wMblSV87s3nVnWtjHBAJO1NXFB/GoUAYmaMsdYScn+tXLky/f8X9vIPFaQkiZRkj3RB8rf2aQqJao1KgKmgUV3buF+sPjaeOSw51okXWSmYGeOn5yXvm4wnpm/NkTBlm7eXL3p3zVLhmvUl0LWhDU0UBYErFfyimWzKk8JgUliaHGBEgkmuNMkRKU8K3URh94/pPmWAZmBhJnz1nTfeDZcV479EjMS5uCNpSK8NCfFUwIKvVdrGSftu/q7H7vrJs94/5yvHnHviwZ/+xO4f3zW3U365P6G7dVx3KyvFllI2X85mQh+R48pQ2Hh0gQvDqBy4MiHfxKMoIAsTZzdw1US5XCbbkqWfry99Y8naxd1hF32Ku5T+OJOiYsNWxO44dcepE6ZlnAdhE9HzKHWNstbSAckHub1m7paVjOdsKCAnZ71FQckXu1Y6X1rySrocrFyeFrJUmcY0rHMC3HV4gBAicrwyDILg6quvPvPMM0msNrSQU8SSYnPnzr3yyiuJkKLWwAQ2mIIa2M+KaxHLC8MZjscfURxwGptNlmK9wjhjaD8RU6dxggy0SdvW42ZkhbVQVTNVtbEi7JTu199d6LVkHNqXlIrEYtXTMY/uJk2sZzzf97ygXHYuCCUInYuNSGLlJAyi0FDO+s54GNUiikU/WF5a9qclz3ZKV0kKsThJ5BAvE0WCiaOcEfTKiBExSE6rZKfIlN1k1+MmH3PSTp/56pHn/c2xX/38fid8YOv37Wp2ntI5saUr73VZUxC2TCVyguRHJqQ6Bxvg460vIRpLnPo9CqQGvQAfolKUjVYEq95Y/XrgBSZuN84nF4tjIlZsVrKTZavtJ+9oisYLnY1CS/U9amcNR1lm5KfuOWGWTw0gFrQw7kx8NRXgk58NpLQoWvLq2jcCP3RGuCgi3QkNYbRFlRXjVK1OCcQjG9/O4nkecYSws7PziiuuQAu55zESU9fQQsvtLuL7/le/+lX2SNN0ymBpXMNGImAbyZnB+8J8JyYtzlwXQ+AjPR+mMP6DtmyUac+1M1+va6t33ZHIWunqjLqs7wUuFIkipMHQH6x34S04j5zB0JvY4npYhCWqEMdFSq4YtclDLz7yprxdFl7sBc6ExkOP03y6mUZ6Qk+sL35esnnJZZ2Z4Nqmy7SdZYcjZrz3c/ucMPtDp53+kVNPPPT4w3d47y7ZHbYqT80sy2TXZluCXItpseKJWBaX9CitzhhS0uj6kAFiz7bkBy+889JqWVWQLk+Mjfu8royLI0YkI/4uW+3YGuZNGa8sqaZHCMWzXlQKd5qy/RRJ/g+L5G1gVuIKXSTu1RWvLSutoMV4CDYooyeNRiBVMkLkEN+Qw8q60CQHieRiRDAUkT3S+fPnE2eZSFjJIq7WGATiiaMxPKkRL6oF1fP8iePGDdCxSKK1pbVrO9f6vmUKFiHE1snVAFdueZaJrLB4jQXby/hRi3mr8PYvn7xrpaxeKx2hBI71WvzExzukrFz7bRBxSqcOI2LEtsu4CTJhR9n2Ag6MeAAAEABJREFU4Jb3fGzqR07f67SLP3jR3CPO++K+nz1o3H7ta3L+GpcJaTaMl5uSuGkNmufQuMSk50B6MYlM9PryN5a5lUZY7CUXIOlxY472JDk8sbtP22nr1mkSivEySZpNwkhcwHvK3bbfw4i1Ei8QGR1MKgdViVsrXc8tfN61uMhGxniVzOaJNJun3NcYCseCjwhaiM6deeaZYRgaE98TKRDWhUQoQHj++eezR0r5iG0N7kTnSFRrGALplNEw7tSKI0zukRHf2ha/1clAz0xXaW05KgWuPNpdZzGEJa3ywBeDQtQaPrPkmf9+7hed0t0t5ZKwT+iZeAEnGztisRIC50n8L7ZkXYZFMJaTbJu0jJdxM2XmHi27H7PTJ05+70lnfOTUI3c6fEJnW2s3LwB9L0KcPBGbWP8tsER7t3vZy+/E/+6opWxayjjYplFCrt9Kpm03fqaUY1EnBdwUMM4G3cH09mk7TtnRZ90YN0TmBhax/JVwcWkpLyPZHw5NnEuF8Yf+NC4BY5KRFjHGcPMXCoXu7m72SM866yyROFESqfM8jyUgBTil5MUXX5z+TUUqjWlIlloDENCnfpgHsecJS2qdMGGCL9aIEebmJKVX4CTqKHZ1ljqcdTxp5FqSeDYN6sLZEIzLKzbwZYhELzNODOril4uthYdef+g/n/2vZbK6wD6txConwk3iquvkvGLr0ulwRCWIm+CDRJ4YK6z+wqx4vFCcIVsd2nrIl3c/6bwPnHvY5IOyHRmv7JnQs5LJWD8KKt8D0oolPRDCckv04juvFOLf4olrNAZlJljfHysW0d1+4g5+wFrT2HVLOhO5TLfMbJ8+RSZ54pnYCxHHWBhZd4QSFaT0zMLnl5fWRhkRr6dau66AfjY2AUQOtctkMqVSCS289NJLWReicKSQTq5Zd5BIyiWXXPKd679jrWURWbdktOP9ENBHvh8oW5iErlBDz5xKbEALvYDpnvl5wFIjkcnQYz01RwbVisp0Zrx79PXf/+DBf3+2+NIqif9dtLKUSq4USdhTdIAPZwWLJaenZiPiifjiZ+M1YusEGb9v294nH/jlEw85YXxXS76YywR+VAozNmP64xX3Ku/e6Vi6NFpWkopYxg0I5TERIyz3sjtvvXObbY3KqHfPepEV56TspH133CcrGROy8Sp9D4Rwpax9beVbZRuJxzZqKvwURNcJ1RqWAAKHtqXuEWHPM5U39j9ZF7JHSkqaWx2ihbwvvOaaa1BK1cJqMvUet/XuQM32nwmapVEPX0766yhbc7zzimzAyzC0sEoMtnQi5tlOrW+zca+c9aLYiAuTv4sFLDR+yZi1QXd3S+mZwovz/mfBjc/f9KK8uFpW+caPuxqLT1wfncPiWPrjqCOuIT1LS0XxwjCu3vWkxh+e2BbJj5e2o7f68OzDT5vuJmcKpj3bai1yGRfo9RPD8dzSzuUvL34tkECwnuqsmAizEtn4Gm9mfub2M3aQUpLtOS60zuZKue0nbW/EZrye+iMjsdFfEfiEEr0j77zy7ms240sir9TJWFBG9GgOAtwGmLU2VT6WhujcKaecwnKwLwAEkkS0kHeKaCEbp5yqNQCBZBppAD/6uDDohHg+HXThwRU0kQiWFh6IMHnMzGm5EQ2Z2bFKEyhurFEsn+KuVpLRAuNl/TAbufHS0d714Gu//cE9P/zF83c+vvqJZbJirXR1SGdBCqXk3zINJUAdqy5OoihRahKv1YywM4yXqUl8RFFesi1hdv/Je3/28P81KRwXdQRhORTEOM7u/RNEUVfQ9dqy10rxn39EcaVVcCltRKyYrOR232bPTDljImMiaxwy728/cftt7DasRynW1yLDIjd46Z2X1kar/Zx1AUIrzlAwEsGIqDU+AZaGaB4hRqRYLK5evXrBggWnnXZatfMoJSpIASybzZ5//vnoJVpYXUbj9UvA1m/XN7PnhnmaS5np0gjxikGjr1VyhxChEctCL2BeRXGMc7TVt+Y4pcXLS+R4upCCKF6lUBaL5+NBtxfXY1w8+3MJF2NE6ANGPKk5ZG8zMhErHhKZ6InTudTiF2vGWDE+5xIZ4wpRd8nrLreX3nXv/uaNB6777Q/mPfb9216//anyn96RdztkbUG6ClIMWKKJ0PswLAo+0msrQiiIE2ZZlmGSHFESMqF44uH1eGk9pH3/T+17tNdlciZDZsQVfMRmkwrimG9jlXtx+UtvyltOfCeuHOJL8rcmIpFElqIRQtiy69Tdp2WnZ4L4f0aRCX3plP133t+XrCcmiH/xxzimOiN0j0qsUEPYLYVnFz4b5AtiShmP5iNDHmUkPayQxtKWjdV1lmbURQjqtJ/cA0QIMSJqvQh4nscDiBFJoSGHV18d/38quGV8369wSyOsGil54YUXso9KVWEQYkTU6pcAj3r9dn5ze85st7mXDv66yEhXudgtRcvUu5HLjNjWTFu73yahkS072AzE0jrwD6vEEym2KCWaZGLhiHOckcigTVYEuYpTyOWDC8mKp302CzNRuSUotZe7x5f/tPLpu56764f3//t3H/7eT57779+++8jr8sZyWblS1hS8UjkTddtuERcbs0Uojrqpbp2R0RMlhon1xM9L/rBtDz14lwNdp0tb7ylT9RG4yOb9FcGKhZ0LC2x9MjN51sQNJT+xUIkxXBBtZadOz2/lBZ4f+VIyU9unzJy0TVZyDvFPy1JK4sEwcQoaHrxTWrKic1mQKUemZCSU5ICAiI2SmpMEDZqFADcXizyMW7hQKMybN+/ss8/mXSDppBACgkga5nK5Sy65BL30fI+vsqqFYKlfYx6s387Xds9N1FnqWBt0ogjOmH77Cv1xuXEYMmAik0zB/RYcOJEWIlQNo5xxCJulNp5YEzkvYpPQeqGPsU5CJGhL4lk+SgRSehp1rJHojnUmDiU9dR4VUm3olXLjPH9itDK76vnCK79+8/4f/v4/5t13/YLfX/+zRXc+sPaxF+TVpbJslawpSol6jS+xxw6txSI+ReJOUluVWcf3AGn70N4f2i63TTZgOqnKXBe1xgtt1O0KLy18JRZCiegfmUbEiE3ilpiJZKqM32PrnbORZ8V3JZk5dbtt8ttkhFPeEHqOxiR2W5IwENawwWvvvrGiY5UxhkTMUMbxafnBIn7UmolA/MgYY601xvD+jz3Syy+/fPbs2TBIs4ikxvKRdSElL7roovR9IekkEqrVI4GeZ74eu167fUZFxLI+6wo6OmMhjCfXfntrxbZJa5vXZkOPWbjfMoNPROGyQba1mB/X3T6+q31i5/jYutondYyf3Nk+uTM+bS+0UsaPLHpJzSglVxFHCiIjqZHu6H0kgQvLUVCIioWwu7O8ptN1d9lCobXc2VboHl9a7BY/ufTpXzx9500P/cf37vnhD3570x0v/urxFU8slHeWy6pOUyqYKBRM2MBECJNbrVpcSDCeZHaSHfbcalYuYBNUbPxLprS/3vgOUQrKgR++sewN9mMjAS5XWdujgiIJ3axhiRntvvVOmbJHVV7B26ptK1/i/U5DZY4lLh+x0SofYSyExYWrF0W+i+ISks50xjFy5KvVMIGR7FoYxhsDCCEix5ovCALeBZ511lmkpHdIpXFkj8ItLS1z586lDOtCskgkVKs7Aum0UHfdruEOM1EzOSeiUjblhe8uLLEJJy7qr8tG7CSZtN3U7UzZeZLMx6iGcPRbnPSNGtJlil5LZ+vH9/jYnA+ccf4RZ1/4vtjOe+/Z571vzvmHYafPPvhLpx762Q/ufqgpRFJ2hv1IlCoIXeRic2HEuzTHTBA6F8sLS9TIcyzIAt+5TCagh9bwqKNCkQ3KmdC1m0JbcU1rx5tm0dPFF//7lbvnPfT9f7vnstteuf0Z9/xqWVOQoMSeUex9XGHce9ZuWCxj1hc/E2+Q5vbefm9TcjaI5cr00kITsb50ObOsY/nzy57vFrqewKE+TCydEhHmqRbJzmibPrN962Blaao/eY9tZmXFMzQUJdVaqRxh/IJQ3nRvP/HG0yGuiVS0kDKpFlIc41StqQhwI3GH47LneURYFxaLxUsvvXTOnDk8FBgFUqMM1tXVhWRecMEF7JESwUhUqzsC+rCP1JDFO4o2WtmxQsQVo1K/zUDfijdzyjZIgou/iSZTvKRhv1dsNNE6yXu5KS1TDpx50P75/Q9sf8+B4/c/cMJ7DpxAuP97Ju6LHTLlPfuP32dCZiL7l7lsLgxD3/h52+KXbGJ+puD7RT9b8DOlDEacBRabjb7LoCaJWtBlYTpAKmOB9ILAK5X8UjFX7GrpLowvdE/sXmSX3PXs3d//zQ9ueepWVocRYmS4KpX5DfrvAiTJZCS7zfgZE/LtJozwghL4jxFJDZJY6AWvLHm1JKXyupd5cW6shfFn8uONk/G7bTMr153ddfJOO+a29yReZSaNb1BOxIjIS0te7LRdzhdj41PHDi6piaGFyacGTUqAOxzPTXKkcnjVVVehhWkiYcUoQjyTyVx44YXskRJHONPLiattOYHRqYEZanQaapZWHMsPA9XImcjmzLur3lkjq10y1SYImOGxJOqYj60v3oyJ09vybb7nJamxGKR6kJwONrA2E5WjNts+USb6kvXF98Q3QsNY3JARll+5jOSLfIf1vHJQ5NurKUtLkJlmJ20t02Y4bDrhdJm2dTQVmxZNme4mT3WTJrg23jVKfNB5LI6JWIxlJbKB8Y4xMkFZCkGu5KaYxXbxvW/ef+291z7W8XiXFIxYLttggnDi+R5dZBk6XsZNah+PLkbJSlR6DhtX6ySlERik65UVsiqQeIHZU2SDD7ZMMztvvfMkM273KTtNlHY/7iElIpa2fMTm0sCtkY6X33mjkCkh55HEC+HIxFmVH5rGKqcaaVoCSB3GG8F58+ahhehiioJEIuktzQ4qp+effz7rwgx7J0GQplNArS4IMJfVRT+HtZNuwzlvWOsWYV6NmFVZxEjGrOpe8+6ad7PiuTh9XUtMx5gwT9uM+DPzM3absavpcF7EcFRsXeEBP3neUrNhxKpu2wlbT5Txecn44lnJWEFdsYwnmCfilaS8YtUasSZ0kQkNS71D9jr0tA+dMvsjp8358BnrjdOPnHbaB0+a88HZ79/ziGhtlAltKkiCMBnpe9CNYqnby3plF5S9cjkfusnmrXDhTx66/aVVL6KFgYQxlvTKxH0u4QzNzkiuLT/ehRKnGACKJKGLv1JIerAifKdr6dvdbzsJYYS2p+nVoSf+ju3b7zFtz1mTd2mRnCd2XW5SJycmHoZIwpXhireWvlFiaWwQ36Q35KopgY0QYJ3X2dl5+eWXn3322b2KsLPCfYsQIoGsC9FLCkSh3ldgqBurzBR10+Mt7agzSQ04nkaSs56A6bKv9eQN+iOuwTpCYe5eVVzz1oq310q3kyQprYWJF0virBzz0nLYTodOiibaIiukTLrG4tFyLn5dF8b6EcXCYCKm8R5zCIPyizwAABAASURBVG5chDpixRVBaTNls/92e02UVishzWFcZoQVIc7GRkpJwqWrlpVc2XIYk5X89NzWs2TXvWS3vWTXfWTXfWWPxHbbV3Y91DtwV9l15wk7Z6McIk3HImMjsRJrIaFwOCMVy2Tz5TAiNwqFeSFwZddq3y0vf/KNJ7ulS+KCXs9lXClxGQob4Z2j15od7/Ee0s/hlZhAUsESQfRwW+JIVMgXX172Sih836aAiJFeR0bsdNnqI7t/aIfxO1jxRQy1OUfIlwBJDy4XcS8vfr4rXJ1v80JYmbhneJEWIJJY5Ay+9DY606+l12rYqARyufhVQnd397e+9a1zzjmH+4o7HOWr+EuKtTabzV500UXXX3896VH8LPCpVgcEquelOujuCHSRLb0RgcA0WnJB0RSfX/JiWcqhxALSE8QzbI8rWWOz4u3fss/+0/fNl7Mtfo6FV2X7hThGUeZjQiZoQnE9HTYoG9N8ZLzA8GJvx4nb7jhpWyMhsz5K7OKiPXO8ieNoi3tnzbvLO9dmWlusx7IxI5Fz3WGL5Me51jbJtxFGLW1hS0uUb4la85Ija3pmaiuCtq5RZ6iH6tIeEenH6FjaxdBGgVdesnpxUYoiuLLu24CRXjLG1pNYFIter6+5EosbNVHgh8+8/uxaWWlMFKW9kF6H8cp2r+32GJcZlxWf9npli6DRwSpZ9fxbzxZdoRwFfQpoghLohwCPpOd5vu8TueKKK8466yyUj3LIISHGaTk5iLNHeu111xprCoUCp2q1TyCdr2q/n3XTw4g1U48Jq5kg61jEvBmxoRcJkzyGK8gAKytC4iItkm2X1g/v+cHx0YRgdeDQNg9NYDlDGJuNRciG4kfiO/FFGLUe8yLrhX4uyGY7suxhTpAJvrCHSS5VoyPUJVTkIRwSsD/5wjsvrw074jqcR6Fy0NXRsdJKYBKFSheXiUSRaemJJ3aKTN558rY0JCLOiKDiGJ9OEDzZ6JEsnFwcsq2EZFuKR47idAsjss6Qo6Cz1OU8CSUg0bpYM7mSuBfFcSIhTWftstXLF3e9W5AulwohieRVGV/SwyBkemLCov/rcxy9j88iiRa6RUsKK2xLLoii2KM4Of4hjsWxEf7R6uuLADcSZpODCPcz7wJnz56N8JFW8SWK+F5JvuP2mzt3LnukLBC5GysFNFKzBGzN9qxeO+asYHHvraBiOddpO3//yu+LUuqRGWcjSWfxuBAPlRGTcWbn1h2OPfjoccW2Nol/MwXxS/UgLhT/VI9UTwUUMM56kZ8t5/faaq/9pu6bEb6xOsOkL4mcxe2kJ7HYdEjH66velLwpBuXAhWEUlMLujsJKtKHSqaS0OJNYZLLij5f2vbfdK1vO0pAXpd3o6YAI4iYbO6iKHtrItmbbPclI2iPhiCuhCmKQCJNVWnfQFXnxJJIkUgATMahhlLpDD1lfdrvCCwtfKEhAn2Ujh+d7zEQOjTNmgyImxhFI9PryN3jdGHnWmaSVDQrpiRLoTcCYnhvJGBNFEeu8jo6Oyy67bM6cORQlkRDjSxghRgrG+8IFCxYY23Mt6Wo1S0AnguEeGhMxfadCQtXM3eV8+Oe3/vSWe5MFGekVOYjIFslmckzPzPUt4n1g+ns/sfvHc6uz2XK+xc8LayGk1Aj6YF0kLjRR6JK/9oskNMZFZZczedttpma2OuHwE6bJlLzkrPERYJ5DK5ERwRAbPkIJn13z7IvLXyl7QeRTJW8wAj9nFy1btFpWliWggHDQFUKuSa40YqnusO0O223aHn5nttW2u5JhmUnV+IKJCFf0MhFWdjTD12Xfd9mdt945J/lASgIc8jawCF/ece+s6FhuEPF+CqwvHYYlmzOvr1q4VroCCddn9InhXu8JKHGHq7qk+4lXnu70y0Up+36mz6WaoAQ2SgAV5J7GiGCsC88++2yeNS85giAgzsXcfhjF0MJ58+ZRMgx4cvlmSKZaLRJQIRz2UUHgsJ5qEYwgU14eLH/kxd8VpLtDOiNZnxsXQkP4MJEntl1aPrLrBz/z3v81oWu8Wx6MN62ZMJtF6sSTyPnOWEH+Yo3yrd+WacmUPbsy2qVt55M+9PntZJuMZKxQhOpiM8KSRzg8BFVMINGf33y2w3RI1vqeL/EvjjrWaWvLHcuKyygWhoFNHtUkSK4xguh58d+8Z4896JhtvBneGq/dtGcC34aGSzZu1kS2zWsNl5dn5LZ67+7vbZGWnPDSLl5RotDphUwQkbiShEvXrOiKuuMVYSKEKZK0THVojDN583bHkiXh0rA6o794OiVV55RisQ+WuWWLV79jWHWbqBSUmbCqy2hcCfRLgNspvVWQt0xycMrS8PLLLz/99NOJY70uTFMuSf49UutZZDJN6VVMT2uBgK2FTjRKH1C4SAxbcuzmpWaRFmeicqb88EsPPx+8WJawR2ZEEj2IIhOFNqBMJBFprdL6kakfPP/Dc94/45DxHW3eKnGrI7+cybgc2uNHyJfnRT7vyApLume4aUdsc+hZR56yr909K54TG0q8cozEYtRmjOcJEhgUJXhhzcvPL3oh8MvGhmG5yIMdGXG+rAk6nnjlT91SzHl5ypOe6G38mUY88bLSsr3MPOMjJ+/WvqNZEeYDPxPGWmjiTWBLQ73MOusVnawI92ydddqHvzxVJlsJnERMIkkHhWsYdE6t+GX2Kpe+iQqCQvocLkkxTgyeGVhF73Yuf27hywmuJG9dEElMcN1ZP59lV4bPi2++3Bl1hRIY3/hW8LOfopqkBDZCADHjnuHWJeQd4Zo1a1gX8r6Q14HpFaRXIsRZK1588cXXXHON7/toYZqlYa0RsMPVobqtJxITDW/nzYbVRTZiN3KVt/rXT92zSlYHErkNCtB6xI+Izca/pdmSc97urbM+e+CJp3zgC5/Y4+MHTNl3Wmna+I5xk7smEU4rTJ7cMXHX7K5H7/Gx2R8/9QsHfW5H2c4PrYn3HamYATVUzwdhYq7TddHugy882iHdfls24lFmWzTJQxjCjDy18E9vysKSlOM06qhYfB7/+GInyLjdvF1OOvwLn3vfCdvabcZ3tWPtXS1thdbWYmu+lMdai/m2Yn5cd+vErtYZwbRj9vzY2R+eM8vf1RPJS6uNpZqq4worPyUpvivvPvPmM6EXuHUDke64VspUn5bDUtASvbDo+XK8vEu5VQoOFCmHoWe8tdL10tKXGQ6XcVFUdjZmNdBlmqcE+hAIw3g/ApGz1qbydtVVV5188snVBcllw4MUxI8FJHuklKEwKWo1SKBqwqzB3o1El1hcxNUiPb0nZRFo9LW49OB+kmudFWetk9S4kChvCv1J2WeWPP+bF+5fI10dbAOSHyXlKSHWYs6P4h4Yz2Rzkt9Kpr2n9aAvzDrxokO+8pcfvfCiI78y57A55x52zkXv/co/HPU3f/3+r31x1uf2tHtMlImeZDJexs/6zsaSUamUitE5dDcwwcPLfvf7d/5QzJaLya/JGA8FiMREkZFyJny79Pb9Lz7YJcWeZVYFzLoIdfritUpmZ9n241t9+KIPnXvO+884cY/jDpt48J7Z3bYPt9u6tPXMYMZOZvv98nsdvc0HT93v83979F9+ZtdPbyPTM2JRQWaOULwIwkbEVJZuUSDlp9556s3CW2UvEHKl70HjgmPOxMvcwHdBNljcteTljpd528cqs3JBzF1ceso01MsyHg2Eb8uiV1a9HuSCclRgUEIXRCa9YrChdYxcPzbY67Vc/RPg1kpFjtUe3qCLxeTfI2VdyJdMclE+ImRRjAgh68V0XUiclNQooFYjBOJZpka6MnrdMD3T5ci0CFJsg7pDK902CNujR15/7LGVvw+tK0jB9JSKP6JYA5DD+CrOfbFZybNN2i6tE6V9J7vt3q17HDBxv/0n7bfX+D129LeZKlOQwDZpz0nOS6518aUbTOqhhMgMe56vFt+6+6nfFNqKZT9wqElFhiTWjdBGrt388Y0nX+h4sYAWspMaV7X+J5LkAiee87OSmSCtW8v0/cbt+7EdPnLSIZ874wOnzvn4GWcdPfusj5923ofPOv3wL396z098YOvDt5WZE2RCVvycZOnWOvMk7m1cOdJYlPJieffBZ34btjm6EacO+JPIoUR+2B11v/rOqybt2ICXVDKZeiIJX1nx6rvFpcledCVHI0pgcwhwR3EZsocRRw7TPVJOSU+NdCJpmMnE/x7pggULSIn/alYkTedUbcwJ2DHvQYN1IF0xSDzdb8C2FBSLfmlldsWtj972h1V/KEn8V33s11VKsjSJEhZG4ouTaBpxXryoyrRLtlWyaKRhSSXiyTolleQ8LmtFYtFCYwJxgQu7pfsNWXzrw7e/U1oqeZNkpo2sfwhp1+W9FVHH7X+4Y6EsKUhJbBTXSPFk6YbEYqERjIgVBNuOk9ZWyU+VyTNlq11km71kh11l+61l8gyZNlWmtkgb+44SSOji/tCt2JwAR1gxx11lHzZYKZ23//GXC7sXl/x+VmYUxvAosUjimpKoiPPcS2+/wj6no411adLTael7cHHZhF3S/cLCF6XF8TLSODHOYlVN9L1OU5TAoAiY5OCVIe8CTzvttCAILE9Jcilql64CCSl1wQUXpH9fSDr5aUhEbWwJMEGNbQeapXWegcCEpXxpdbbj5vtueXjpo6G4btsdxq8MmY2xGAXjgcWxdT+emGQLUxCmcrkQhuUwCpw4JndsXak4lwLpaZj8KmaH6UZpfvzoba8X3vImZopR/IeMCEBaxqUfaJNBTFgUeq92vnnTo7eukrWdUihLKZKouv6e4kJDNitZK37G+YJ+lcNcvOzL5cOMX/Z9yYr4LmS7NuP5bPMmoiciUSi8AkwslKgkpU7puuut/3li0VMyzi9LUHlBSNlNGsvHJZ3vLpWlLimadDWNJud9Ahf7Ei0pL33tnTfYg2VlmRbpgZ6eNFzIzDs8PmktgyNQKBS6urquuOIK9kirr0AU0UiWjMheZV3IhJCWITGNaDiGBOwYtt1UTVtnPfGcM0EuWDVu7Y8fv/WuxXcWTZmloRMTRoI5lyAhxOIoSmSFFZj1hRQnuUw+Y7O+yZDp4iQ+Y4sLSZSE1BGKBEXpWiTvXv+7G57vfKW7vdgVdcdKY6JYjeIr4h+qjD/EBi4q2VIwIXyx86UFj33/NVnYFf+hXolcrhChQlaDSCDGF93Y4izjZfycn8lHsdgZz8tyGhelY6y1IsQPS7sZxe0ij2KjKAilsFKW37vkf37z7J3F9u6SLTtjqHDwhhAuj1Y++fpTqKnQXHwl3q+Lxqcb/EQSFSR49d3X1gYdNkfJiOyGVEFjTK+JlRScJcRKpRIhBdKQdLVhJJDP56kNyJdeeukZZ5xBHNnrhZpcdHHu3Pj/5ctAUIYChGpjS4BJYWw70Cytm2QjDm+ZxAv54ors2p/98Y4bn7hxoSxeJWu7bcHaWAzihR6FYosn6/gz/SETI+7SD2K9zUmle0TUAAAQAElEQVQ5kFJZimtl9SvRqzc8+IPnVj3XlesqJf+zobQ0s39lUSixgKXJaF1YNMXuXOGF1S/94MEbn+56bo10dUk3SlMOA08821Nw/Qf9w9JzIpiLn2ljxMQRLjBk8kNOFBlXMmFn7GnpXVl+29O3/9fvbu/MdRUzhdALJNFbSg/SIhN1SdcLi14sShGlxZj+461TmuqvilCiDlnz4pJXXNaEzrEbnHIwrr/SdZvmksMYs9X0rXCCM0KMFOKrV69esmQJp2ojRIAluE0OaLP/ybqQhWAul+O0V4u+71900UXp/78QaeyVO7anzdk601VzOj76XjNJR+nM64wXZKVzXOnhdx5fcN+C3y57YKWsKLIbmeoBi7o0UtXH+GJJpnpDiLpU5SXpYRAvuLokeEdW3f7mr67+zfzXCq/L+MjZknFRPO+LEKaXJd2Ihz4yJEReZDESI1cOW0qvF17/7oM/vP3NOxfJ0i5bNp5fclFZEEsKu0ii1KywBk37JQhKapSgXowM1o+cpsY7S/q2RkqPdjw575HvP770ieLEMq8GucpKYKk1LTe4kNWtaZV3O5euKK0qSkhP8JFOuNidfqqgw4vCJS8ufslZE5VNDwcTDVWA+6m6lpKYdlPNmzhxYnW/mIhJZ2vu2WefrU7X+DASADKW6CDbHhF7pN+57jtoITpHIvyr20olk/eFV111FatGLqzO1fjoE2DKGv1Gx7rFjc2Xo9iv0EbFbBhNcm8FC2955NabHr35noX3LZZ3OmxXp+3qlu5yvLZjFxHj9RqT/DozzrGqkcjFf0gXBFIqSKlbCp1+90J5576FD17/2x/c+cxvusaVw3GuEHZHJlFBZ2206bGOeyXFsC1EpH/557uuu+/6BxY++KYsXGM6O6S7W4oFifdyg7hpehUrosQ9ISIRMYk7GUmcFQi7kVHJlgqmsEY6V8jqJ1f96abHfnzDPTe9sPaVNbmuglemuR7kaFJcQc/ZJj9wyrT4HVHXk289XUyWrd22q8MrdtpiJyiki4VsL/vTkme7/C4UlDlIkqUwGrzJhuqrAOuMVAv33Xff6p4zCzMXh2F4zz33VKdrfBgJALlSG/dYEAQrVq5If4/U87yK1BFnIFJjUC6++GLWjpULNTJWBDY9OY5Vz0aq3VQF46nQ9Gkincx7hX1KbVYCzSYWV84KxucnKhejUrklLEwMn+p4/r+e/dm1v/3ef772syfLf14i7ySqU0ARi1IqSbEsYZhYOd7/DBxyFUsgu5edS2TxH4tP/+iVW6548Oobn/jx84WXim1BZ9RVigKxHu8mjYtHmcVfJBaj+/SEMDXSkQcMWWJthZVcWIi6o/bg9fLrtz1127fu/daNL/z779Y89rp7fY2sLUu5EPcnCCXWrjCWvdBJOZR4YzYU+gZY2yndHdK5SN59KnjuF4vv+s4fvvu9h777u+WPrm1bW24pl00o8VYwHbNC9zAhnvZo0yH9Z8N2rel8atmTT8mTz8sLz8lLz8lzz8kLz8hzz8oLvew5eemppU935bvDbMhrVonbojlWhoSbbq5eSjAXZ7NZ5tw99tijvb2d6Ziec0pInNw77rjjiSeeaGtrKxaLzMikq40EARQO2tTMcvCaa66pfl+YDgS5GHHKsC5kj5RhCoOQkBS10SfQUBPBZuFLJuLNunILLorlkJs+Ehf/KqkflFqD1a0dLxZevuu5u//93htvePTGH/3p1l+/ee8f1z79TPFZ1mQL3ZsLo4XYKlm5SBY+3/3CE6ufvHfhvbc885Pv3//v/37vzXc//z+vl98MJkfltjDwA6Qi7Z5x6ef6sJJVSYqMYKRjkdjQSCKKQTFX7GrrWhQt/u1bD9/8wI+u++V3v/foDT997RcPvfPoH1Y9+UL5pTdl0SJ5Z4ksWSxL3knCV4LX/tjxp4dW/u43b91z67O3ffe3P7jhvhvveOrOP614pqO1M5hQKuVLgUf3IFBpn5sQq5wONuK3ZV7rfP2G+3/43Xu+f/3/fP96wnu+/93ffP/6Pvb9+254dcXrrEEjz4VhkDSwOS0mF9ZukM6thHsnBx0ljhGp2BVXXMHCERVkjq4kamRYCICahxpDCNnwxIh3d3dfddVVaCGLdcj3aoiSjMWFF16IXnq+xzqSS3qV0dNRINCA08EoUBvWJiybi0FUZhexnC91txffzaxgVfebhff9x1O3LHjoO9c+fP2VD8y78v55V9x/NfatB799xb3zrvnt9dc+8v1bnrn9rtfveabr2VUtq4MWZ/I+AtZd7EL8Kjb4rqaXVMojjZ61fiaTa8lL3nSO717c+u5jq5+89c+33/DEzd959HtX3Tfv2/dceun9V3z7/isIv/XAFd++7/LL7r9q3kPXfuex7/746Vt/+eqdT3f+eVl2VTDByTjftPghSltpYPMjiGjkZb2yKRWypdVex1J/FdCW+SuW+cuIY8v8VdW20q7x2rJ+PNGUra3c80Swze9HDV6Jd1EUsS485phj6B6zKrMzkYrdeuutN9xww5QpU5hzK4kaGV4CYGcgMOCjf8uWLVuwYMGZZ57Jaa+GUEGKEaZaiHbquPRCNDqnjTYRjA61YWzFJL8n4ni/LmHJlgO/3Gm7O7Kl0sSgODVc2961xC57M1z4hnvrTff2227RG+W3CBf7y1fk13SNL5cnxkvAbtvtco7FJTuTfK/kOdzyHvLQooUoVxCFxajUbQvduUJ5fDmYKh0TCmvaO5dmli2SJW9Fb2P0bWH09kKz+N3MshVtq1a3d5Ymh26yuAnCsnJNuLYovM505ahMhVveN2oIw1IkYWCjLht0Ac0rdCXW6RWwNF4Ji6bU0b0WLEw65XK6IqSOxrR44MLoy1/+MmqHh+gijleMlL/6q7+66667tt56a51zoTFCBlsGgvuNMJ/Pd3R08L7w5A3/PVL0D5kMk4M4e6SUQQtHqEta7QAEVAgHgDMaWQgD7+eQw8Ssc8b3s2yZlh2iEYVGnC8mJy5rXNYF2SjIhFiUicKMLbggFCfxRVGIKiA0EnJqWNyxzDTWmc0fX/oQGQki3k3SBI+zAQfzKe8xyOIlX+C7MCOEWOg5wshzZS+Ks0wYuHJcOAqioERHgrCExfOCE3qXGhVuluGUZXEZWptYsq9rjcNdY6x1nnFxdzf8YX6hP6iC53H5ZjVbJxfhN1+Gdtlll5NOOoku2/UrYM7E87w1a9Z88Ytf/OlPfzp16lRygyBgm5SrmJQpAaU6t5roPjwTgQuJAJkbr6ur68orr5w9ezanGOkkEqbdJZ7L5S6++GLKMApqo0ygwSeFUaa5Wc1FIhj61WNJJT3jgkY6E2dHJmL1g7H5idiENn6Nx2UUQK4iGyURElKT9Kqkqs0PELy4cjoQi2BPPUnPepqj0dToFT0k5JSQOKXpgzhLDcTFRD0WnwzPj3FpPQhgbCLr2kqTmztkhr3ooot22GEH5tlqEszOzLlo4ec///mvfe1rK1euRA4nTZqEQPIGi8JcqDaMBNC81MCevi887bTTGAWAV48L8PlGQruXXHLJ/PnzyeLbCaHa6BBIprXRaUpb6Y9AqhO8JzQiieJE6KJxEbN8Yqx0ULV4okdXsEisk3Uzvom4HO3B0MJYaeJKKC9JuoQmjstQDm4ILKITiVEDwpZakkDHMHpFKbrRYyLxaU/orGBJCh1O4ut7QFcTG3LH1leRxKyLMC8SzDhcj7FI0q7bgnVwUncjBCzvWBT+7d/+LXMrE3G1S6QwCzMXX3bZZR/84AfPOuusBx98cMWKFUzEFCNXbXgJQBWdY0+CCNivv/768847jwHiNDW+f3BKiFgyWHPnzmWPlEtCdnzSEhpujMAwpTN/DVNN9VpNxCRaC31HHuiG42dAi6VlIwWQgo3kjEgyPcE2WfVgymyykr4FjPC9QUzCy8b61xMXPRICTKN8zpkzh/UH0zrxamM6ZtpFDt94443vfve7H//4xw8++ODjjjuOZaLasBM44YQTvvCFL7BTzTvCE0888VOf+tQLL7wA/MqIMEAYKkgKQ8PYXXjhhfPmzYtcRIraKBBoPiFM507hDksm0Q0YQ6OvbVBi2E+SSdxGLPLEsvyKkjUc4rGBOV7MYcxdLu0AmlcxYe3lrI3SdZikJcg1QmW4KRtUZdIKekKK9bJ02WeF6iIxiYmkZdJrktrirdG0JPpdsTSl51qJktP4ItdTQVwNlSUWp2/JT0+dJq0j7m3aLu9HsaoG1xU0jvTUko5F68K0hkYL04mVdQbz6SGHHMI6I5vNpk5yGzHnYszFJGLMvKwIH3/88d/85jd36zEcBO5KDmr69a9/fd9993H2q1/9ilMIE7/33nvhz0BUG6PDKSFjx3ihhT/84Q9JYY+UkHS1kSPAvD9ylddqzSYVixrqnjPr5aq/bm0yjXFMbX3JWHaGw1HqWV+pxuqHAPOpZxE777bbbjvwwAMRRaZXErHUCWZYElNjIcLUTDq5aiNHAMKbNMaFYaPY17/+ddaOfFOhPwwTKWojRIDZc4Rq1mrHhAADig1P00ggNjx1aS2jToDZ03qWV1PbbrvtnXfeefTRRyN1qRZW+sJSIzVSKI8RURtzAryvRQuXL1/O2pHOMEaMIxG1ESIwbJPmCPVPq1UCTUdg+BxG2DBWGFOmTLnjjjv+8R//kbqZVUlEETEiFSNLrUYIMEYYnens7CRkOai/OAOHkTMVwpFjqzUrgZogwN5aOqv+7d/+7cMPP/zpT3+aU1aHhGTxghBFxOgrokgKcbVRIMAij1ZyuRwh8DH4E6bGABEhi2FijDx//b/cTbra8BJQIRxenlqbEqhFAsywTKmEhx566E/+8yf33Xff7Nmzt9pqq2KxGK82wpBOM+Ey+ZLC+0K1USAA+SiKWK8DPzWGgDFK4xqOJoHmE8L091JSxs3nfeq3hjVFoPqXt0Z0HqRyptrIRR/84Ae/+93v/v73v7/xxhvPPvvsj3zkIzvuuOM222wzLTmm6jEqBNivnjRp0sSJE2fMmDFu3DhGh9syDYmojSaB5paC5JcqjYuci78RjyZ3bUsJxH8IWUXBOjsKTyPzLDtyNMtCZNtttz355JOvu+66u++6G1F87LHHHnnkkYceeuh3eowKgUcffRTmhE888cQ//MM/8B3Fq/o/FzJGaqNGYBQevcSXsQ64yTB6kS4I4+/gxIxY4xkXWIlM/PuRlb8tq45In6M6t2+8ujh4seqUvuU3llJ9VXV8qOWrr62Ob6ye4Uqvbqs6vrH6q8sMJr6xejaWvrE6R7p8P+265K9lqoSQmyS+AY0IMS7guxnhiBqvpsIgZC+UVnj/xLpk5syZu+yyy6xZs3bWY7QIAHzXXXdlj3ry5MkMBJZOU0T6Gl9i+iZqyrAQSJ+7YamqPipBArGeviYrQuKRCwgHbaMAbYAm+s3qN3FghzbjkoErrM4doPJ+s/pNrK6wb3xIlwxQuN+sfhPTPvSbw1ImRAAAEABJREFU1W9iWr52Q/SPuTWVQ0K1USYQrDv4OuKcYyxq915p9J7V5QO82YMS32rrZTCuxkgUGXGGeNTzD6mYiJONGLgwMglTI46l8TTktJdVp6fxTYbUsLEy/Wb1m7ixGtL0zbgkvXDTIVVLvLbptySZfdP7TexbrDplSJcMULjfrH4T09b7zeo3MS3fT8g9iAnfw4ywLnTxLeciE5Ego7E/KpWDJwI5tNYSqo0yAfaoU7OjO+iV0ddIhQBPaSXeFBF2QG08AyXOOvEimwn8TJDNhL6/abN+iFVKVuKVSCUrjVg/8GPb4Cp/EA1RZt21aQ1pOFA9/ZVPr+obDlQPTQ+L9defgdrtr3zfnqcpA9Wzsc73V/9A9QxH+bS3fUIv8r3Ql0h67kRDTPhCFn8kN+boB6xI1EaZQBTvTEeEDDffSDBVRFCMiTWFEHJ/80bE930iG1B2snZ5h1spM/MzJ8qkCWad2QkT7IRJ3sTExk/yxk/2J26mZSZOxjbvci7sZQPX06vwAKcD1zNcuX07MHDNfctvLGXgejaW27e2jZVM07e8/IY1TMtP4V6a3jptq5aphaUdslokFDHGhWLib2dWrGlpaRERliZslxEZNTObf+iVm0mAUUb5CBllL/k1GQadlOrqyFIbBQJNIYRwRAinTZtGJP7ebcQZdkOd5xm3OrplwY+f/83zix5f/O7vFlXbkkffxt753WKMyKbsrSWPphZfVVW4kphGBh9ST9/C/SamxQbISgtUh0MqXH3h4OP9NtFvYlrnAFlpgepwSIXTC/u9pN/EYSyfVtUTLvztq8v+sGThb1/7/X8/8qtbfiUlESPChqgTF0nGY43odtttNyEtipgQiagpASUwCgSaQgjTzYe99tor/tolsQamZMPASUHWPLXizn/96V3f+Omv/88dfe3uv//5evu7n99dsTj9jrv/vq9VlY/LVE77lhw4pXJhr8jGrupVbJOnG6tnuNI31oGN1b+x8htL31g9G0sfaj3DVX59Pb/+xh2/+tv/vvsbP3/gmnsKr3bHKhjGd6L1xDNSLpc5OeCAA1gWsCYgrqYEao5Ag3bINqhfG7hlvdjNE044IXRRPPskP5USGcmY0DNFzxZMj3V7ttszXTa2bmu6rXSZ2Lo9qViaMoRQpGtIlrTYT/0bq2Rj5TeWvrF6hit9qO1urPzG0ofaz6HWM1zl19djuzzpMl5XxhaNx00Yimc9NC8KxVovimTrrWceeuih1tpUFCu3qEaUgBIYUQKxQoxoA7VQOXMN3fjQhz503KeOFSe5bM6KRRNJxMqFsitHrhRGZddjQRgFoQujisX7V2xhMWOtN7cucZARNrw2YaxVq0yM69d4p9Sv9Vt4gMR+KxnGxI01vbEmNlZ+Y+kbq2dj6UOtZ7jKr6+H24kxjYLABRIFbM4bFn/cgZ6YZNMiOu3U03bYYQdSsuv+34HE1ZqBgKs6msHfWvOxKYQwvcdA/0//9E8Tx08oFYq+7/O9m5QeQ+RcTzT5GJug0s9+m09zNaxfAtXDyvew9Y6Ic+IOP/z9f/lXf1ldRuNKQAmMDoEmEsJisbjffvv94Ac/yOVyzEEsEz0v3pgaGDTFRtPoDH3rZSRiaTeIVCxN0bDeCUQiW8+cec01V02ZMqkyuBpRAkpg1Ag0hRCy+GOuRP949XL88cfffvvtM2fOZFcKvSEdOaQAYb/G2nHUjG5gdKnv8JOIkUsnM8nB7tmodazBGxot9xjBfo33gnfdddd73vOevuOuKUpACYwCgaYQQjgyAREiHkEQHH300Q8//PCFF1647bbbIocYikgY9negnaNmtE836AxdrRg9J4X01CiT9qdUKqURDeuFAOOIMYIYEUZ2zz33/L//9//ee++9u+++O15UBl0jSkAJjCaBZhHCClNrbKlUYkV4xRVXPPLIIzfffPO//Mu/fP3rX7+4Bo6LLrqInmy33XaV3jJXEiccP378ueee+7WvfY0yQ7IacEu70EOA714XXHDBV7/61b/5m7/5t3/7t5///Oe//e1v/7//7/9jRcq3HNb5jLXaSBPQ+pVAXwJNJ4Se77FHCgi+kk/favpnP/vZv/qrv+Jb+WWXXXb5WB9oM6o8a9Ysuoehf2lIV8eNG/d3f/d33/rWtygzJBtrn7T99QQuvfRSxo7wH7/xj3/xF39xzDHHTJw4kVFGAn3PZ6wZaEI1JaAERplA0wlhhS8TEKLIHMQCkf3SMAjZmxpbY1nQ1dVFSCfpHmHFmCLpJFnFIR54p1YLBLi1XOQI6UzkIoaReDq+jDW3IoNLJE3RUAkogeEgMNg6mlcIU0JMPSwQPc8z1hCOrdEldsmYKIlYaxE/jDhGP1PjNWfFUHG1eiHAyKb3GBFuMwaRnjOyFWPEK3GNKAElMJoEml0IU9bMQTVinmWS9NJebTJMpVHDeiFQfY/R502OrxZQAkpgdAioEI4O581vpTJjViJ969IUJaAElIAS2GwCKoSbjW5UL6zskY5qq9qYElACSqAJCKgQ1sEgV9aCveSQ9E1aHbinXRwaAS2tBJTAMBNQIRxmoCNUXRRFI1SzVqsElIASaHICKoR1cwOw+KubvmpHlYASGBYCWsmoEFAhHBXM2ogSUAJKQAnUKgEVwlodGe2XElACSkAJjAqBGhHCUfFVG1ECSkAJKAEl0IeACmEfJJqgBJSAElACzURAhbCZRrtGfNVuKAEloARqiYAKYS2NhvZFCSgBJaAERp2ACuGoI9cGlUAzEVBflUDtE1AhrP0x0h4qASWgBJTACBJQIRxBuFq1ElACSqCZCNSrryqE9Tpy2m8loASUgBIYFgIqhMOCUStRAkpACSiBeiWgQrg5I6fXKAEloASUQMMQUCFsmKFUR5SAElACSmBzCKgQbg41vaaZCKivSkAJNDgBFcIGH2B1TwkoASWgBAYmoEI4MB/NVQJKoJkIqK9NSUCFsCmHXZ1WAkpACSiBdQRUCNeRqLdPY0y9dVn7qwSUgBKoIQKVrqgQVlBoRAkoASWgBJqRgAphXY66MbocrMuB004rASVQgwRUCGtwUIa7S1qfElACSkAJbJyACuHG2WiOElACSkAJNAEBFcImGGR1sZkIqK9KQAkMlYAK4VCJaXkloASUgBJoKAIqhA01nFvujHNuyyvRGpSAEhgVAtrI8BBQIRwejo1Xy0033XTyySd/4hOfOOaYY47e+PEJPZRAAxHgbsebv/zLv3z22Wd5qKMoIlRreAIqhA0/xJvj4Ne//vVTTz31Rz/60V133XX3gAcF1JRAIxHgfv/2t799xBFHPPDAA9baMAg35xHSa+qKQH0IYV0hre/OsjV6zz33/L//9/+I+L6fyWSIeBs/KKCmBBqDALe5MQbxI1y1atX5559fKBTq+3nW3g+OgArh4Dg1TSmmgNtvvx13mdqC5CAl3PhR1kMJNAoBbnP2Qgm555HDF1544Xe/+53ne3wX5IlQa2ACKoQNPLhDc42nnVmAKWDNmjWEGCkYidUVkc4cMZI2NnXjF4anNM/KgEi/Rm5DGr5XrF/HSWxIx3Gq4nglwm2P8T2wo6MDx6NQ3xSCoZFNhbCRR3d4fWPKQCGYLKiWaaIhDdcQftYERKot9Z2wOrGR4rhWGdlefpHFuBP2Sm+YU1zbmO8N46M6MjABFcKB+TRvLjrXy3lmQ1LQCYzcBjNcS2dDIn2t2nfcbzxD+3GKMe0LYWR9p9WxtgF873snaEpDElAhbMhhHRGncrncxOSY0KBHe3t7Pp9nfdAXH29McR2/CRvVcB/NQwt7ud/MvvdCoaeNSkCFsFFHdnP8qqwG0tmQ04qhEDfddNPjjz/+2GOPPd6gxx//+McTTzyR9QlaWHGcCCivu+46ch9++OHHGuv43e9+98gjj+DXM88886UvfYlxR/ZwudquvfbaJ5988pFHHhnMsNcFnoojqft//vOfTzrpJNaF+M5Yq40cgZqtWYWwZoemtjrGFLn11lvvsMMOu+6666wGPXbZZRfWfKhgL/Ssk7ZLjj333LPxXN+NY9ZuM2fO5LsOo9zLd1JmzJix7bbb7jZrt10HcdQFn4of9Bbvt56+9fjx4xl3vgP1cl9Pm4SACmGTDPSQ3ew7KZRKJSaLYrHYKL8t39sPGAVBgOMoH/GKkYLXnBL2vqYxzoMyPuI7ssdaEE+rjSxOS+XSYHzlJql9qziSdhXvWA7iZq9xJ12tSQioEI7AQDdilcwRbBylkwWRhjTmR5QeJcDN6jHEWd6PIhKsmYg3oPkZHPd9H6+BQFgx0rPZbBiE5Dag47jkZzzfw82KyxppQgIqhE046P27jAD0n5Gkog1MFhiKmCQ0WoDOMSviXV8OLJVSb4GQRhojxGUcwV/rxfMAbhJH8EivNrxGKiBD4U0aNdS+Vbyw1uJa5RQClbhGmopA/AA0lcPqrBIYXgJamxJQAvVOQIWw3kdQ+68ElIASUAJbRECFcIvw6cVKQAk0EwH1tTEJqBA25riqV0pgkwSqX+ZtsrAWUAINTECFsIEHV11TAkpACSiBTRPoXwg3fZ2WUAJKQAkoASXQEARUCBtiGNUJJaAElIAS2FwCKoSbS65xrlNPlIASUAJNTUCFsKmHX51XAkpACSgBFUK9B5RAMxFQX5WAEuhDQIWwDxJNUAJKQAkogWYioELYTKM9oK/pPy9ZXSRNqQ7JdZEjbEir9rQ63pDOqlPNQEB9HCQBFcJBgtJiSkAJKAEl0JgEVAgbc1zVKyWgBJSAEhgkgYYQwkH6qsWUgBJQAkpACfQhoELYB4kmKAEloASUQDMRUCFsptFuCF/VCSWgBJTA8BJQIRxenlqbElACSkAJ1BkBFcI6GzDtrhJoJgLqqxIYDQIqhKNBWdtQAkpACSiBmiWgQlizQ6MdUwJKQAk0E4Gx81WFcOzYa8tKQAkoASVQAwRUCGtgELQLSkAJKAElMHYEVAhHn722qASUgBJQAjVEQIWwhgZDu6IExpCAMWYMW9emlcAYElAhHEP42nQTEFAXlYASqHkCKoQ1P0TaQSUwKgSM0RXhqIDWRmqPgAph7Y1JzffIufX/S0LiQ7KhOjekyik81PqbuTy4KjZcHCoVDjIy1HYHWW2l2MbqrxQgsrEym5Gul9QpARXCOh047bYSGGYCxuiKcJiRanX1QkCFsF5GSvupBEaQgC6MRhCuVl3zBDZLCGveK+2gElACQyVgjK4Ih8pMyzcIARXCBhnIkXYjCIK77777Zz/72X/+5D9vqzp+0kDH7bff/txzz/VdG0VRdN999/3iF7/A1yrXGyr605/+9NVXX8V3BrrXvfTggw/+/Oc/b2DfuatfeOEFY/R7QK+Rb6JTFcImGuzNczW9KgzDv//7vz/++OO/+MUvfiE5Pp8cnxvi8dkhHkOs/nNDrH59cRo68cQT7733XvxF+Qir7Rvf+ManP/3pxOPGCZJh7AkAcccdd1S7nBHKwzYAABAASURBVMaRxiH53lPdoD+GSnPQFfcU3Fj9PdnJB3c133LwtO+4pxA0bHgCKoQNP8TD5mAmk/E8L5vNEullpA/Sel24ydNBVlsptskKN1aAGnDN2viJoEwvar7vk0UBshrGcLli+IuDhL3MGIO/FBuk75QcklH5kGxIlVN4Y5WTVW24ieO5XI5QrQkJxI99E7qtLm8GARaFfGUulUrlcrlUisPyuoOsQdq6Kwb7OchqK8UGW2+fctRQKpVYFkAGNwmrjeIkUoAIm4eNYbhcMRzHQREhUnE8lQdcJosQryvlNxah5JBsY/VsLH1IlVN4kPWkXheLxYrvGmkqAiqETTXcw+Ms82PjWYomnRCZPdPTviGO902s0xR8qRia0deLlEZ1OikDW3XhwcQHrq1v7mDqrC7Tt4Y0pVeZ6lONNyEBFcImHPQtdTmdShosHCSUBvO64s4m3a+UbLzIJn1v2ALq2DoCKoTrSOjn4AikawjeJzWY4dfAACiApV5Xv15qjPgmfU8dJ2wMf6u9qPjO+FbiGmkqAiqETTXcw+BsuiBgJ63BDL8GpkMBLPWavdMGM/V9YAKa29gEmkEIG3sER8k7lgLnnHPON7/5zb/b8Pj7Rjlw65//+Z8PO+wwgOIsYcVYPcyePftf/uVf8JViDWmp7zieyWQqjqeR008//Rvf+MZf//Vf/03V8bcNdDCyRx55JL6n/mrYhARUCJtw0DfH5dbW1jPPPJOZEBn4x6qDKbJh7Otf//rhhx+O7PUCxEIQMSAXT6tcb6goOofv7A2y5K12H99PPvnk//2//zffgRrVGNnU92rHNd5UBFQIm2q4t8jZyi+XM1dWLAzC2rLN7U8QBEz6+BiGoe/7vUiRTm5XV1e4ufXX/oX4iO99vweUSiVowKfaat+dwfeQmzn1ve+447haMxBQIWyGUR4GH5kiWS5QEbMGm0gYp5j1LGasqXezxnKkMoDm4Wm1kU5iPp/H2YY1G88GDHS148TxnYEmrLaGgmC5feN/X62v77iv1gwE4lu/GfxUH7eQADLAPEgllXdITI4VQ0Lq3rz4WWAqxCnEnhBnMSKNanhXMXxMvWagK4lESMfSiK06SKwFG5Y+pN5VQiJqzUYgfvibzWf1VwkoASWgBJRAhYAKYQWFRpSAElACSqBmCYxgx1QIRxCuVq0ElIASUAK1T0CFsPbHSHuoBJSAElACI0hAhXAE4W5e1XqVElACSkAJjCYBFcLRpK1tKQEloASUQM0RUCGsuSHRDjUTAfVVCSiBsSegQjj2Y6A9UAJKQAkogTEkoEI4hvC1aSWgBJqJgPpaqwRUCGt1ZLRfSkAJKAElMCoEVAhHBbM2ogSUgBJQArVKYCSEsFZ91X4pASWgBJSAEuhDQIWwDxJNUAJKQAkogWYioELYTKM9Er5qnUpACSiBOiegQljnA6jdVwJKQAkogS0joEK4Zfz0aiXQ0ARccuAinyJCRE0JNB4BFcLGG1P1SAkoASWgBIZAQIVwCLC0qBJQAkqgaQg0kaMqhE002OqqElACSkAJ9CWgQtiXiaYoASWgBJRAExFQIZQmGm11VQkoASWgBPoQUCHsg0QTlIASUAJKoJkIqBA202irr6IIlIASUAK9CagQ9iai50pACSgBJdBUBFQIm2q41Vkl0EwE1FclMDgCKoSD46SllIASUAJKoEEJqBA26MCqW8NHoPKvi1Uiw1e31qQElMDwENiSWlQIt4SeXtssBExyNIu36qcSaDICKoRNNuDq7tAJVBaCLnJDv1qvUAJKoNYJqBDW+gj17p+eKwEloASUwLASUCEcVpxamRJQAkpACdQbARXCehuxMepvFEVBEIRByMFWYUNauVzGTQBbu8FzwWmabqyJCQBhtGxEmwuqDrxub29nWIn0NbpBWXI3aYCqOyuVSviF1ww0oVoTEtjggW9C/9XlQRJgsrjgggs++rGPfvjDH/5gIx5HHnnkscce+7Of/Yw5EbGvxsLM/tWvfvWoo46izEc++pGGsY9WHcccc8xtt92G1zhLWG2XXHLJUUfj/VEfatDjuOOOu/XWW3G5r+8kqjUDARXCZhjl4fHxiSeeuP/++x966KEHG/HAr7vvvnvRokUsC/pOiE8++eSvf/1ryjzwwAON6P2Dd95552uvvdbvjfLcc8/de++9DP0DDzSm74z7woUL8Z0vQHwNIjJGps2OGQEVwjFDX18NG2OyyZHL5ZLPRgsymUwulyPsOxWSQjpGAdwm0njW0tLieR6jzPeAXncmzuI1uan7xBvM8AtLvYZAGtGwqQioEDbVcG++s4gBu6NYsVgkbDzjBSGuEeIpmNKwEiEdo8BQHeeqIdlI17+xznR3d6frob6rYbzGyO3VNxL7Wq8ydXGaesFYqzUtgTEQwqZlrY4rgbomwJeDaqtrX7TzSqCagAphNQ2NKwEloASUQNMRUCFsuiEfXYe1NSWgBJRArRNQIaz1EaqR/hljtt5661mzZu28886EjWe77rrrLrvsMn78eDzFqrF7njdz5kwKYDs16IHvEydOrPa6Et9qq63IxXeGviGNm3nChAn422vcSVFrEgIqhE0y0MPg5ve///3f//73DzzQmL9D/+CDDz7++OMnnHACr8EymUwvXlddddVTTz1FmUca9PjDH/7w+c9/3lrbVwzmzZv39NNP33///Q9v8qjPAvh+8sknM+K+7xOqNSEBFcImHPTNcTmXy7EyaG9vJ2xUmzRpUj6fh04YhoQVQxqnTp3a2trKmrhRfR83blxLSwsuZ7NZwoqxGmaliO/Tpk2b3qAHg97W1oanvca9AkEjDU9AhbDhh3h4HGStUC6XCVGFxrTIRVHEmgAfeyEjnSkSr0vJv8VFpPGMhSBuYrhW7T4pQRCkKcQb0tgAwEeGGC1MPdVwMAQaqYwKYSON5gj6wjTBXMksmUoFatFo5sUOQZC5nrDayGCKxP3N8J2rhmS0NSQbUuUDFMZfHKdphphinKZGHN+JE5LbkIZ3+IWnEMD9ipGu1iQEVAibZKDVTSWgBJSAEuifgAph/1zWp2pMCTQTAVZFzeSu+qoEYgIqhDEF/VECSkAJKIGmJaBC2LRDv1HHeUdCXhoSSY03KBVLUxoy7NcpUGBkucgRNoxVBjSN4FfqJhE1JdBUBFQIm2q41VkloASUgBLoTUCFsDcRPVcCzUygmRaFzTzO6vsGBFQIN8ChJ0pACSgBJdBsBFQIm23E1V8loASUQPMRGNBjFcIB8WimElACSkAJNDoBFcJGH2H1TwkoASWgBAYkoEI4IJ76y9QeKwEloASUwNAIqBAOjZeWVgJKQAkogQYjoELYYAOq7jQTAfVVCSiB4SCgQjgcFLUOJaAElIASqFsCKoR1O3TacSWgBJqJgPo6cgRUCEeOrdasBJSAElACdUBAhbAOBkm7qASUgBJQAiNHoPaEcOR81ZqVgBJQAkpACfQhoELYB4kmKAEloASUQDMRUCFsptGuPV+1R0pACSiBMSegQjjmQ6AdUAJKQAkogbEkoEI4lvS1bSXQTATUVyVQowRUCGt0YLRbSkAJKAElMDoEVAhHh7O2ogSUgBJoJgJ15asKYV0Nl3ZWCSgBJaAEhpuACuFwE9X6lEA9EzDG1HP3te9KYHMIqBBuDrWqazSqBBqZgHMudc9FPZH0VEMl0EgEVAgbaTRHyZfK5DhK7WkzI0OAcawYLaRxIhUzJl4dGhOHlcSGieBvFEVhEBKpWMN4p44MiYAK4ZBwaeEeAkwcPbE6/8CRim3aleYrAZzU6chFaWTgkPJDsoFr65s7pMoHKEzNxhjL4ekcCIxmN70Jmv0O2Gz/mWU2+9pauJD+Y2lPiDjd+ktYWLvROSGm1Cg/ia+SeoMiVixN17DZCGz0pm82EOrvZhBI55G6DqMwwkKOKIQAvlRCIqmRiBFnVUSkIQ3v8IuQ3ULCfo0Cm7bIuSGZG+IxpMo3Xpgd0fK6o19nRUTTm4eACmHzjPUWecpXZt/3mSWZPYg3gLH0wTzfwzLJUQGEd5U4ES85mLAhQFbDGO5XDDdbW1sJSSGsNlLwHUJENmnAHJJtssJeBYZU+cCF8SibHDjLCKcNEVdrQgIqhE046JvjcqlU+sUvfvHDH/7whhtuuL5Bj5tvvvn5559nTmR9WM0IGbjrrrtuvPHG7zbWUT2M+P7CCy+g8XzXqfad+C9/+cubbrrpO9/5Tlq+msH3+hzVuYOJ96lgEwmDqXMwZWiGYqlHt91221NPPdVr0HFcrXkIWGkeX9XTLSDANPGNb3xjzpw555577tmNeJxzzjknn3zyvffei6e9OCGN//qv/3raaadRphFdj3065ZRT7rjjDiQf9wlTAmnksssuw3fGHfcxSp+17uB+6GXrcgb72evyTZ4Ott5NlaMhiuALHn3+85+/8847cZndDkK1JiSgK8ImHPTNcTldKxCyPZjsJzVakMlkcIn9MXzsBYj5EUkglzIUaEhjWCuO94rgOy7jO2VSIw6Nfo2sIVm/lQyQOKTKByhME+TyFSd1reJyr6HX0yYhoELYJAPd4+aWfDBZsG8WNO6RCh6I8JSwYukpuRiq0JDGqOIXLuNsGiGOcYox7vjOYrFilO/XKgUGGem3kgESB1ntJovRBGVST4lXPCWi1oQEVAibcNC31GWmj4a0wXBpSMdxKvUdzUsj/YYUa0jr11lNbCoCKoRNNdzqbFMRUGeVgBIYFAEVwkFh0kLNQ4BFT/M4q54qASUAARVCIKhtgkBlxwyRaFRLEeBdGsHlipFInHQihA1puFaxagdxPE2vTmyAeOpUdYhTnBLWq2m/t4CACuEWwGuaS5kgMpnMJZdccvXVV1922WXfbqDj0nUHPuHaYYcdZq1l9q8eW3y/+OKLr7zyym9961v/1kDH/6s6rrrqqsMPP7za6zTO0M+ZM4dc/P7XhjhwBPtWcjDoGN597GMfw9Ne454S0LAZCKgQNsMoD4OP+Xz+85///Ny5c88///yvNdCBulcMtTviiCOi5OiF7Pjjj7/gggv+orGOv6w6GNZDDz0Urz3PI6wY2nDSSSedc845F154YVXxOo5Wj2F6I3NX8wUIl7PZLKFaExKoOyFswjGqCZdLpRICwbdmwsawMAixKPm3RoPkAHRXVxchsz9hxcgMw7BcLqcQGsP92IvE95QA62DcxHEiFceJUAyvWRMTZ/QbwPAIY+grhmvd3d34TjpxtSYkoELYhIO+mS4zGzJZ5HI55soGsPQforSexdK/E4eLtT1PRPWMTzqOUwYCFGgc8yy+p4aPuEyIGOAskYqxRiTLi8vZhjnS0U9D/MXwl687hGpNSKDnsW9Cz9XlOiAwFl1M58SxaFnbVAJKYGwIqBCODXdtVQkoASWgBGqEgAphjQyEdkMJNDsB9V8JjBUBFcKxIq/tKoExJsAmcMXGuCvavBIYUwIqhGOKXxtXAkpACTQjgdpx+DseAAAQAElEQVTyWYWwtsZDe6MElIASUAKjTECFcJSBa3NKQAkoASVQWwRUCEd2POqxdt4b0e00JJKacy6KIuLOOcKGMdysWMM4NYyOAMfa+N+cM9YMY7ValRKoKQIqhDU1HNoZJaAElIASGG0CKoSjTVzba1wC6pkSUAJ1SUCFsC6HTTutBJSAElACw0VAhXC4SGo9SkAJNBMB9bWBCKgQNtBgqitKQAkoASUwdAIqhENnplcoASWgBJRAAxHYpBA2kK/qihJQAkpACSiBPgRUCPsg0QQloASUgBJoJgIqhM002pv0VQsoASWgBJqPgAph8425eqwElIASUAJVBFQIq2BoVAk0EwH1VQkogZSACmHKQUMloASUgBJoUgIqhE068Oq2ElACzURAfR2IgArhQHQ0TwkoASWgBBqegAphww+xOqgElIASUAIDEWg0IRzIV81TAkpACQxIwGx4WBvPkMaaBvvfcA7IoBkz42FuRr/VZyWgBJSAElACCQEVwgSDBnVJQDutBJSAEhgGAiqEwwBRq1ACSkAJKIH6JaBCWL9jpz1XAs1EQH1VAiNGQIVwxNBqxUpACSgBJVAPBFQI62GUtI9KQAkogWYiMMq+qhCOMnBtrtYJ6C/K1/oIaf+UwHATUCEcbqINWp8xJvWsXC6nkTRENhrG8KhYLBL6vk9YMRyMosgYg+9EGtJw1lqbekq8YqQEQZCGg3E8DMIh2WDqrC4zpMoHWRjvwjBkfCtea6TZCKgQjumI10/jTEapSBBBDxrScC2TyfSdEEnB0rFCFRrS8B3DR+SQsNpId5FDKgg3aZGLhmQuckOyyA2t/sGUd84xvoS9vgBVQ9B4YxNQIWzs8R0270ql0mmnnbbXXnsddNBBBzTose+++958881MiEhdNThS8J3cBvU7dmu//fb70Y9+hNc4S1gxz/POPvvs/Q/Y/+CDD953v303adQzJNtkhb0KDKnywRf+3ve+h8u9xp0UtSYhoELYJAM9DG6+9tprL7744gsvvPBs1fFcoxzPP//8Sy+9tHbtWhYHWDUvTt96660///nP+Ir7m221fOEzzzyzevVqPI2iqNp3dBHfyWXMcX+TBsYh2SYr7FVgSJUPsjDerVmzpq/v1Rw03tgEVAgbe3yH7B0TXzoVEmFq6GUkUiO7ZxhrBYxIYxiesiAgxEHcTCPEMU4JScGIYEQayfCIQay4mUZIxIjjKbkVY9AHsEqxQUYGqKrfrEFWO/hieIelnhJWW/ogVKdovFEJqBA26shupl9MfEwizEHp7NCrFnIxJgiMl0YYkcYw/OrlbK9TCmCpszjeSIZTuNbL3+pTcjGKYQM7ToEh2cC19c0dUuWDKYxfGM6mIZGK8Qjw3ahyOsSIFq8nAiqE9TRao9BXVHD8+PHpDDIKzWkTSqBmCSCEuVyuZrunHRtGAiqEwwizEapCAo888kimgH5/g450DLHEWDViRBrD8Gvg8aMAljqL441kOIVrA7hPLkYxbGDHKTAkG7i2vrlDqnwwhfEL69f3mTNnHnjggWTZ5H/GREStUQlsqRA2Kpcm9IvpIH3gP5cc7EqxWUQiRiQ1ZLJiFMAqp/UeSR2sDnvdA2lW6iaON5KlTqUOElYcJ55aWiANB3Y8LTP4cODa+uYOvuZBlkwdrHaZGz49/ed//uepU6eWy2XKVBLTLA0bjIAKYYMN6Ja6w2NPFTfccMM3v/nNQw89dL/99ttrr7322WeffauO/auOqmSNKoG6J8CtjQ+f/OQnf/nLX55yyilIYL9/WsozotZIBFQIG2k0h8EXXorw8Ofz+b/+679+IDkeTI7fxkfPT5LQE/Qk6YcSaAgCDz/8MHf2z372s6OPPpovhSwEeRyG4bnSKmqbgAphbY/PqPeODSUefqaAQqHATml7e/uECRPa2trG6aEEmoBAK0dLaxAE3P+sBXn+eBwI1RqbgAphY4/vkL1D/LiGKYBFISGzAFaJEMcoUDFO1RqTQFN6xY3t+V42m21paSGu1iQEVAibZKDVTSWgBJSAEuifgAph/1w0VQkoASXQPASa3FMVwia/AdR9JaAElECzE1AhbPY7QP1XAkpACTQ5gSYTwiYfbXVfCSgBJaAE+hBQIeyDRBOUgBJQAkqgmQioEDbTaDeZr+quElACSmAwBFQIB0NJyygBJaAElEDDElAhbNihVceUQDMRUF+VwOYTUCHcfHZ6pRJQAkpACTQAARXCBhhEdUEJKAEl0EwEhttXFcLhJqr1KQEloASUQF0RUCGsq+HSzioBJaAElMBwE1AhHG6iw1mf1qUElIASUAIjTkCFcMQRawNKQAkoASVQywRUCGt5dLRvzURAfVUCSmCMCKgQjhF4bVYJKAEloARqg4AKYW2Mg/ZCCSiBZiKgvtYUARXCmhoO7YwSUAJKQAmMNgEVwtEmru0pASWgBJRATREYYSGsKV+1M0pACSgBJaAE+hBQIeyDRBOUgBJQAkqgmQioEDbTaI+wr1q9ElACSqAeCagQ1uOoaZ+VgBJQAkpg2AioEA4bSq1ICTQTAfVVCTQOARXCxhlL9UQJKAEloAQ2g4AK4WZA00uUgBJQAs1EoNF9VSFs9BFW/5SAElACSmBAAiqEA+LRTCWgBJSAEmh0AiqE1SOscSWgBJSAEmg6AiqETTfk6rASUAJKQAlUE1AhrKah8WYioL4qASWgBBICKoQJBg2UgBJQAkqgWQmoEDbryKvfSqCZCKivSmAAAiqEA8DRLCWgBJSAEmh8AiqEjT/G6qESUAJKoJkIDNlXFcIhI9MLlIASUAJKoJEIqBA20miqL0pACSgBJTBkAiqEQ0ZWOxdoT5SAElACSmDLCagQbjlDrUEJKAEloATqmIAKYR0Pnna9mQior0pACYwUARXCkSKr9SoBJaAElEBdEFAhrIth0k4qASXQTATU19EloEI4urwH3ZpzziQHkUFfpAWVgBJQAkpgyARUCIeMTC9QAkpACSiBRiIwtkLYSCTVFyWgBJSAEqhLAiqEdTls2mkloASUgBIYLgIqhMNFUuvZFAHNVwJKQAnUJAEVwpocFu2UElACSkAJjBYBFcLRIj0c7RhjhqMarUMJjDgBbUAJ1BEBFcI6GCz9C4o6GCTtohLYYgLG9P6mq8/+FkMdVAUqhIPCNDqFwiCMXMTRt7kwDPWR6ItFU5RAgxGoz8e87gdBhbCGhtDzPR4DrG+fMsnRN11TlIASaAACvu/jRd9n31qdogEz4qaURxzxkBpI9C7T95IgCMrlsjG9d076ltQUJaAE6o5Ad3d32udeysepMcYlO0VpAQ1HgoAK4RCojnRRtka56bPZbN+Gurq6Ko9K31xNUQJKoK4JLF++nP7z+BNWm+d5nKKDaCERtREioEI4QmA3v9oZM2ZwcWWThAjfCjs7O9944w3S1ZSAEmgYApVfCPjjH/+IUzzppFTkkMgOO+wQpxvLexMiaiNEQIVwhMBuTrXGxjufO+20U6+LeR6wX//614hiryw9HTECWrESGHECqfKtWrXq6aefpjHegBCihTzpPPIsB9PZwHo6UQNmBE35jiDcoVbNrc8DcNhhh/EAVF9rreXZuOuuu1asWFGdrnEloATqmgDPO0/3I4888txzz6WOMAlkMhlmAB55VHDWrFmUITHN1XCECKgQjhDYza927733HjduXPX15XKZB+Opp5765S9/WZ2ucSWgBIaHwFjUgtSlzS5YsIAIikiI8byTxemRRx6ZzWZTFUQOyVIbIQIqhCMEdnOqTe/47bff/uMf/zjX88WQux8jHoYh4Te+8Y3XX389LcbpAMZVqQ1QRrOUgBIYZQKlUgmRo1FCBI9n+eabb/75z3+epvDMEsFQQULmAQoQURtpAiqEI014CPXzGKR24oknEuE5SS/mYUjttddeu/jii8MgxCiQ5vYbpuUJ+83VRCWgBMaEACs8RA4VdJHzPf/RRx+95JJLqnvCc81jG4bhrrvu+olPfIIsUghJJFQbFgJ9K1Eh7MtkzFKiMErbPu644/bZZx8eGO5+wvRJIMIG6c9+9rPTzzi9HGzibwq5JLW0Qg2VgBIYKwLpk1gJUcH4Wfa9x3//+Oc+97mlS5dy2qtv7AadfPLJ48eP5yomgV65ejrsBFQIhx3pZlbIHW89m970ra2tf/d3f0eK7/uE1EjI84PxjfKmm246+uijn3nmGdIrxvIxNfZe1JSAEqgdAkHVwQNrk999++53v8v33YULF5LCc01YbSwHv/KVr5CSTghE1EaUgArhiOIdQuXc8RXjshM/c+IxxxyDtvHYcIqhhRh7JqwLf/vb3x5xxBFf+9rXnnjiCbIwJJNvkZhnPcQyl8vlkh/iakpACYwhAZ5KHk+MyPLly9nU4YvsWWedtXr1ap7cvkaxf/iHf5g8eXJfgexbWFOGhYAK4bBgHP5KjDWXX375DjvsgPIhkGkDbt1BSkdHx2WXXfahD33ofe9731/8xV/827/927XXXvsDjht+wJdNNSWgBGqEwPXXX79gwYL/83/+z5lnnskD+5nPfOY3v/kNwszX3PS5roRIIHH2Sz//+c/zjFe+BJOoNqIEVAhHFO/mV84zMGvWrKuvvprnoVLLOh3s+aRMoVDgffull1769a9//bzzzps9ezbfNNWakIC6XLMEzj777PPPP/8f//Efv//976dvNHhy2S6tPNdESMGQxsMPP3zevHk89TzkpKuNDgEVwtHhvDmt8CQce+yx1113HREejLQK4tVGOs+P53lE8vl8S0sLcb5XqikBJVALBHgeMXrCEpCQOBueqaVPdBry/GL77LPPf/zHf4wbNw5F5DFPszQcBQIqhKMAeTOb4MHA+J5700038QgheLz1I4XqeEiIEJaSP0ti+5TEYrHIApFnjFM1JaAEaoEADylGT1gCEvJ48qjy8GKIInEMjSTrgAMOuOuuu7bbbjsXObIoQNZGTJOHmYAK4TADHYnqvvzlL99xxx277rorsscr9/QhIVLdFg+bmhJQAjVOoPLMonN8tcWIoII843feeefMmTOjMDLxL4+THP/Lw5XyGhlRAiqEI4p3eCpnn+SjH/3oQw89dPHFF/Pk8KWSpx1RHJ7atRYloARGnQCPMM81z/KsWbNuvvnmG2+8cdLESTzUqoKjPhRxgzUthHEH9SchwBPCc3LZZZfdf//9n/vc59rb25NkDZSAEqhXAjvttNM3v/nNxx577Atf+AILQdxgm4dvuiwGiWOIJaHaKBBQIRwFyFvaBC8IeTuY/g/JDjvssB/d/KPf/e53V1111fHHHz99+nR2SqsbqDxF1YkaVwJKYAwJIGkYz2Y+n99///3nzJnzX//1X08++eRf/dVfTZgwoauri6cbQwWrO0n56lONjxwBFcKRYzuCNe+1117nnnvuf//3fz/99NN/+MMfbr/99uuuu27+/PlXX331lfV6aL+VQMMSuPzyy2+44YZf95GszgAABVxJREFU/vKXrP8efvhhntYTTjgBUWSOCIOwtbWViNoYElAhHEP4m9m09SxvF/iCSTh16lS+YLI05DvmeeedN3fu3AsuuGCuHkpACdQGgQuSg7f7p5566lFHHbXPPvu0tLTw5PKyw7Mee6EsBDdzItDLho+ACuHwsRz5mhA/jA0TNkuz2axNXqynKSQS4d07RmTk+6ItKIEtINA0l/I8YjyS6RPK+o9Tnl8kkMcXDGRhRNTGkIAK4RjCH3LTPEtY5TK+S3KKkUKI8Y4hNeJqSkAJjDmByvPIQ0qcZ5aQXhFiRFIjV20MCagQjiF8bVoJKAEl0PgEat9DFcLaHyPtoRJQAkpACYwgARXCEYSrVSsBJaAElEDtE1AhHL4x0pqUgBJQAkqgDgmoENbhoGmXlYASUAJKYPgIqBAOH0utqZkIqK9KQAk0DAEVwoYZSnVECSgBJaAENoeACuHmUNNrlIASaCYC6muDE1AhbPABVveUgBJQAkpgYAIqhAPz0VwloASUgBJocAIbCGGD+6ruKQEloASUgBLoQ0CFsA8STVACSkAJKIFmIqBC2EyjvYGveqIElIASUAIxARXCmIL+KAEloASUQNMSUCFs2qFXx5uJgPqqBJTAxgmoEG6cjeYoASWgBJRAExBQIWyCQVYXlYASaCYC6utQCagQDpWYllcCSkAJKIGGIqBC2FDDqc4oASWgBJTAUAnUsxAO1VctrwSUgBJQAkqgDwEVwj5INEEJKAEloASaiYAKYTONdj37qn1XAkpACYwQARXCEQKr1SoBJaAElEB9EFAhrI9x0l4qgWYioL4qgVEloEI4qri1MSWgBJSAEqg1AiqEtTYi2h8loASUQDMRqAFfVQhrYBC0C0pACSgBJTB2BFQIx469tqwElIASUAI1QECFcNQGQRtSAkpACSiBWiSgQliLo6J9UgJKQAkogVEjoEI4aqi1oWYioL4qASVQPwRUCOtnrLSnSkAJKAElMAIEVAhHAKpWqQSUQDMRUF/rnYAKYb2PoPZfCSgBJaAEtoiACuEW4dOLlYASUAJKoN4JDEUI691X7b8SUAJKQAkogT4EVAj7INEEJaAElIASaCYCKoTNNNpD8VXLKgEloASahIAKYZMMtLqpBJSAElAC/RNQIeyfi6YqgWYioL4qgaYmoELY1MOvzisBJaAElIAKod4DSkAJKIFmIqC+9iGgQtgHiSYoASWgBJRAMxFQIWym0VZflYASUAJKoA+BBhbCPr5qghJQAkpACSiBPgRUCPsg0QQloASUgBJoJgIqhM002g3sq7qmBJSAEthcAiqEm0tOr1MCSkAJKIGGIKBC2BDDqE4ogWYioL4qgeEloEI4vDy1NiWgBJSAEqgzAiqEdTZg2l0loASUQDMRGA1fVQhHg7K2oQSUgBJQAjVLQIWwZodGO6YElIASUAKjQUCFcDQoD6YNLaMElIASUAJjQkCFcEywa6NKQAkoASVQKwRUCGtlJLQfzURAfVUCSqCGCKgQ1tBgaFeUgBJQAkpg9AmoEI4+c21RCSiBZiKgvtY8ARXCmh8i7aASUAJKQAmMJAEVwpGkq3UrASWgBJRAzRMYRiGseV+1g0pACSgBJaAE+hBQIeyDRBOUgBJQAkqgmQioEDbTaA+jr1qVElACSqBRCKgQNspIqh9KQAkoASWwWQRUCDcLm16kBJqJgPqqBBqbgAphY4+veqcElIASUAKbIKBCuAlAmq0ElIASaCYCzeirCmEzjrr6rASUgBJQAhUCKoQVFBpRAkpACSiBZiTQvELYjKOtPisBJaAElEAfAiqEfZBoghJQAkpACTQTgf8fAAD///WytccAAAAGSURBVAMAIzVKfptut3EAAAAASUVORK5CYII=;" vertex="1" parent="Al5XGX1l0qWC6tel_waJ-24">
          <mxGeometry x="800" y="420" width="63" height="63" as="geometry" />
        </mxCell>
      </root>
    </mxGraphModel>
  </diagram>
</mxfile>
